<svg xmlns="http://www.w3.org/2000/svg" viewBox="0 0 241 197" fill-rule="evenodd" stroke-linejoin="round" stroke-miterlimit="2" xmlns:v="https://vecta.io/nano"><path d="M26.4 168.96c2.832-5.853 9.226-8.096 18.48-7.44l25.44 3.6 44.16 17.76c32.05 18.968 67.225 4.445 86.4-16.56l7.92-8.4c-4.209-.867-8.175-2.534-11.52-6.24l3.36-16.56 20.16-28.32L234 80.083l4.32-19.363-4.56-21.12-4.56-11.04-13.68-15.12-6-.96 3.36 14.4c-1.849 3.417-4.357 6.031-8.64 6.48-6.718 1.5-13.877.654-21.36-1.92-24.95-4.392-49.437-14.292-73.92-24.24H75.84c-12.381 2.38-22.585 6.107-30.96 16.08l-10.56 10.8-5.04 5.52 8.64-1.44c2.244 1.692 4.135 3.808 5.76 6.24L31.92 67.44 11.28 98.16l-6.24 25.2 1.44 24.48c2.115 8.885 5.732 16.69 11.04 23.28l14.4 13.92-5.52-16.08z" fill="#cbd5e1"/><path d="M28.495 168.94c3.939-15.153 43.061-2.783 81.395 14.844 36.234 17.008 72.468 6.185 87.171-13.916-19.167 20.719-54.351 20.41-79.294 8.04-28.357-14.225-59.077-18.864-79.82-16.39 24.681-6.494 59.34 4.639 92.16 14.535 36.497 10.205 62.753 1.237 75.356-14.225 3.414-1.856 6.302-4.33 8.665-6.804 3.938-2.474 7.614-7.112 9.452-14.844 2.101-9.277 0-17.626-3.676-22.265 4.726-6.804 9.453-14.225 13.128-22.266 21.531-44.84-7.351-85.97-39.122-94.319-25.206-6.804-48.311 14.225-14.703 24.121-21.793-8.041-12.603-22.575 11.29-16.7 16.804 4.021 22.318 12.679 21.005 17.937-4.201 14.843-43.06 2.783-81.395-15.153-36.496-17.009-72.73-5.876-87.433 13.916 19.167-20.72 54.35-20.101 79.294-8.041 28.357 14.226 59.077 18.864 79.819 16.39-24.681 6.804-59.339-4.329-92.16-14.225C72.606 9.37 46.349 18.338 34.009 34.109c-3.413 1.856-6.302 4.021-8.927 6.495-3.151 2.783-6.302 7.112-8.14 14.225-2.1 8.968-.262 17.936 3.414 22.575-4.464 6.494-9.19 13.916-12.866 21.647-21.268 44.531 6.302 83.496 38.334 95.247 24.681 8.968 48.312-14.225 14.704-24.121 21.793 7.731 12.603 22.266-11.29 16.39-16.804-4.02-22.318-12.679-20.743-17.627zM86.784 36.583c49.625 10.206 121.042 9.587 128.131-11.132 2.626 11.442 2.101 24.739-3.15 34.944-23.106 46.078-25.732 93.702-7.352 97.412h3.676c-15.754 6.495-36.759 4.639-55.139.928-48.574-9.896-117.891-9.277-127.606 9.896-2.625-11.133-1.575-23.812 3.414-34.017 23.368-46.077 25.994-93.701 7.351-97.412-.787 0-1.837-.309-3.413 0 15.491-6.185 35.971-4.02 54.088-.619zm141.522 52.572c-5.251 9.896-12.078 18.864-18.379 26.904-1.313 1.237-2.626 3.093-3.939 5.567-6.301 8.968-11.027 17.008-9.977 24.739-5.514-19.791 22.055-40.511 30.457-67.415 4.726-22.266 2.889-42.676-4.201-56.592 14.966 16.39 15.492 47.624 6.039 66.797zm-91.897 79.785c-31.77-9.896-64.591-13.916-87.434-11.133 26.782-6.494 64.328 2.165 98.987 8.35 25.206 4.329 44.373 2.474 57.501-4.329-14.178 14.843-44.636 14.534-69.054 7.112zM103.326 26.688c31.77 9.895 64.591 13.916 87.434 10.823-26.782 6.494-64.329-2.165-98.987-8.04C66.829 24.832 47.4 26.688 34.534 33.8c13.916-15.153 44.111-14.534 68.792-7.112zm-90.847 78.857C17.73 95.649 24.557 86.99 30.596 78.95c1.312-1.237 2.625-3.092 3.938-5.566 6.302-8.659 10.765-17.009 9.978-25.049 5.513 20.101-22.056 40.511-30.458 67.724-7.089 24.121-1.05 44.841 7.089 57.211-16.279-16.7-18.904-47.006-8.664-67.725zm200.861-89.99c12.603 11.442 13.391 38.346 7.089 58.138-8.402 26.286-28.619 46.077-25.993 64.632-5.777-21.647 18.379-45.459 23.63-73.91 3.939-20.719 1.313-38.346-4.726-48.86zM26.132 178.836c-11.028-12.37-12.078-38.346-6.039-57.829 8.402-25.976 28.62-45.768 26.256-64.632 5.514 21.957-18.642 45.768-23.893 74.219-3.676 19.792-1.313 36.8 3.676 48.242zm176.18-24.121c-8.927-2.474 2.101-15.153 14.967-32.78 1.312 3.402 1.575 8.968.262 15.462-3.676 13.607-10.765 18.555-15.229 17.318zM38.21 40.294c8.927 2.474-2.363 14.844-14.704 32.78-1.575-3.401-2.1-8.659-.262-15.462 3.413-13.916 10.765-18.555 14.966-17.318zm50.163 73.989c-2.735 0-3.053-.825-3.244-5.175l-1.145-23.1c-.254-4.275 1.336-5.025 4.262-5.025.191 0 .191-.9 0-.9l-4.834.075c-1.717 0-3.308-.075-3.944-.075-.763 0-1.59.75-1.971 1.875l-7.888 22.875-9.159-20.85c-1.399-3.3-1.908-3.9-3.053-3.9l-3.944.075c-1.208 0-3.498-.075-5.279-.075-.191 0-.191.9 0 .9 1.463 0 3.308.6 5.089 3.75l-.255 20.925c-.063 5.925-1.59 8.625-4.961 8.625-.191 0-.191.9 0 .9l5.597-.15 5.407.15c.254 0 .254-.9 0-.9-3.308 0-4.834-2.7-4.771-8.625l.255-18.375 11.958 27.375c.127.375.827.375.954 0l9.922-28.65 1.082 23.1c.254 4.35-.509 5.175-3.944 5.175-.191 0-.191.9 0 .9l7.315-.15 6.551.15c.191 0 .191-.9 0-.9zm28.369-9.075c-1.972 5.325-5.979 8.775-10.241 8.775h-.7c-2.735 0-3.18-.975-3.18-5.175V98.233c3.626.15 6.679.45 9.668 1.05.636.225.763-3.675.064-3.6-3.053.375-6.106.6-9.732.675V86.233c0-4.275.445-5.175 3.18-5.175h.446c4.07 0 6.742 2.475 8.714 7.875.063.3.763.3.763 0 0-1.875-.127-5.775-.127-8.25 0-.375-.191-.6-.636-.6H92.19c-.191 0-.191.9 0 .9 3.498 0 4.134.9 4.134 5.175v22.95c0 4.35-.636 5.175-4.134 5.175-.191 0-.191.9 0 .9h23.916c.763 0 .954-.3.954-1.125 0-2.85.254-6.525.445-8.85 0-.3-.636-.3-.763 0zm38.291-25.125l-5.661.225c-2.036 0-3.753-.225-5.407-.225-.191 0-.191.9 0 .9 3.371 0 4.834 2.7 4.834 8.7v15l-15.711-20.7c-1.908-2.55-2.289-3.9-3.371-3.9l-5.915.075c-1.018 0-2.353-.075-3.562-.075-.191 0-.191.9 0 .9 1.59 0 3.244 1.125 5.534 3.975v20.7c0 5.925-1.59 8.625-4.962 8.625-.19 0-.19.9 0 .9l5.598-.15 5.406.15c.255 0 .255-.9 0-.9-3.307 0-4.834-2.7-4.834-8.625v-19.2l22.326 29.7c.191.15.763.075.763-.15V89.683c0-6 1.59-8.7 4.962-8.7.254 0 .254-.9 0-.9zm37.4 0l-6.615.225c-2.608 0-4.834-.225-6.615-.225-.254 0-.254.9 0 .9 2.735 0 3.18 1.05 3.18 5.325v20.925c-2.735 4.575-5.724 6.375-8.777 6.375-3.562 0-6.615-2.475-6.615-10.65v-16.65c0-4.275.508-5.325 3.307-5.325.255 0 .255-.9 0-.9-1.654 0-4.007.225-6.615.225-2.163 0-4.198-.225-5.788-.225-.191 0-.191.9 0 .9 2.099 0 2.481.9 2.481 5.175v18.6c0 8.25 5.279 11.325 10.685 11.325 4.262 0 8.015-1.95 11.322-6.45v4.125c0 1.275.127 1.425 1.209 1.425 1.399 0 2.608-.075 4.516-.075 1.463 0 2.735.075 4.134.075.255 0 .255-.9 0-.9-2.735 0-3.244-.825-3.244-5.175v-22.95c0-4.275.573-5.175 3.435-5.175.191 0 .191-.9 0-.9z" fill="#482d42" fill-rule="nonzero"/></svg>