<?xml version="1.0" standalone="no"?>
<!DOCTYPE svg PUBLIC "-//W3C//DTD SVG 20010904//EN"
 "http://www.w3.org/TR/2001/REC-SVG-20010904/DTD/svg10.dtd">
<svg version="1.0" xmlns="http://www.w3.org/2000/svg"
 width="800.000000pt" height="800.000000pt" viewBox="0 0 800.000000 800.000000"
 preserveAspectRatio="xMidYMid meet">
<metadata>
Created by potrace 1.14, written by Peter Selinger 2001-2017
</metadata>
<g transform="translate(0.000000,800.000000) scale(0.100000,-0.100000)"
fill="#000000" stroke="none">
<path d="M255 7399 c28 -5 153 -23 280 -40 126 -16 271 -41 322 -54 120 -31
312 -60 346 -51 36 9 48 34 37 81 -17 74 16 70 -538 71 -317 1 -479 -2 -447
-7z"/>
<path d="M3653 7400 c-98 -20 -167 -66 -146 -98 15 -24 63 -18 133 18 146 73
300 4 300 -135 0 -79 -58 -155 -97 -128 -42 30 -117 64 -170 78 -60 16 -213
22 -274 10 -33 -6 -42 -1 -125 67 -178 147 -241 180 -348 181 -42 0 -93 -7
-123 -17 -64 -21 -136 -83 -157 -136 -9 -22 -19 -40 -22 -40 -4 0 -31 23 -60
50 -62 59 -165 111 -232 117 l-47 5 50 -25 c185 -89 313 -346 246 -494 -24
-51 -51 -67 -113 -64 -37 1 -49 -3 -57 -17 -25 -46 40 -89 139 -91 58 -1 131
54 145 109 22 90 27 100 43 100 16 -1 82 -79 82 -98 0 -5 -23 -40 -51 -78 -71
-96 -148 -229 -255 -439 l-92 -179 -31 65 c-35 74 -89 133 -137 151 l-33 12
80 39 c96 47 106 64 84 142 -19 63 -70 115 -113 115 -57 0 -70 -48 -20 -71 39
-17 52 -56 35 -107 -15 -46 -67 -82 -172 -118 -59 -21 -125 -58 -257 -146
-267 -179 -337 -206 -442 -173 -98 31 -166 126 -166 231 0 82 64 195 131 229
38 20 98 19 130 -3 14 -9 45 -39 69 -67 51 -60 73 -73 95 -55 27 22 18 67 -22
111 -55 60 -104 82 -189 83 -62 1 -75 -2 -113 -28 -87 -60 -151 -181 -151
-284 0 -145 142 -292 282 -292 47 0 157 34 232 72 39 20 38 19 -30 -56 l-68
-77 -41 8 c-22 4 -85 8 -140 7 -119 -1 -207 -24 -305 -81 -63 -37 -193 -158
-278 -258 l-43 -50 47 90 c27 49 63 123 82 165 32 72 33 73 29 32 -3 -26 -21
-68 -47 -110 l-42 -67 44 43 c98 95 148 217 208 506 60 292 72 320 177 435 80
89 168 153 199 145 27 -7 167 58 188 87 16 24 146 47 180 31 12 -5 54 -13 92
-17 120 -13 158 -47 169 -151 9 -84 -11 -140 -67 -188 -43 -38 -103 -53 -156
-41 -16 3 -56 31 -88 61 -76 70 -124 71 -124 1 0 -21 13 -41 50 -77 56 -55
136 -90 205 -90 46 0 95 17 95 33 0 5 22 33 49 63 118 129 121 304 8 413 -20
18 -33 40 -30 47 4 11 -7 14 -48 15 l-54 1 55 13 c30 7 67 11 82 8 38 -7 129
37 161 79 31 40 49 113 41 160 -10 52 -74 166 -105 189 -38 27 -79 22 -98 -12
-14 -25 -13 -29 21 -68 47 -55 53 -90 27 -152 -43 -99 -133 -153 -337 -201
-70 -16 -153 -37 -185 -47 l-58 -18 42 43 c23 23 47 40 53 38 15 -6 49 32 66
74 32 81 -22 232 -103 289 -57 39 -89 52 -150 59 -72 9 -129 -9 -166 -51 -84
-96 -18 -228 125 -250 37 -5 47 -3 70 18 51 47 20 74 -86 76 -114 2 -137 71
-41 121 33 17 122 4 162 -23 52 -35 73 -80 72 -153 -1 -108 -30 -153 -223
-344 -234 -231 -269 -289 -320 -540 l-27 -135 -37 120 c-20 66 -45 147 -55
180 -26 82 -34 176 -21 264 10 74 52 170 58 137 2 -10 7 -16 10 -14 66 35 108
49 145 46 37 -3 44 -7 62 -40 24 -44 32 -49 79 -41 32 5 36 9 36 35 0 88 -110
170 -230 171 -94 0 -150 -44 -190 -150 -18 -47 -22 -79 -21 -166 0 -60 3 -125
7 -145 l7 -36 -75 62 c-87 72 -189 128 -251 137 l-45 7 5 38 c3 21 1 52 -5 69
-6 16 -66 117 -135 223 -68 106 -146 230 -173 275 -27 45 -50 81 -51 80 -1 -1
41 -115 93 -252 52 -138 107 -281 121 -319 19 -50 33 -73 54 -85 16 -9 29 -18
29 -21 0 -3 -24 -11 -54 -17 -119 -25 -266 -128 -266 -186 0 -38 40 -67 96
-70 43 -2 57 3 110 39 104 71 143 87 209 87 73 0 128 -24 207 -87 42 -34 58
-53 58 -71 l0 -24 -50 31 c-53 33 -132 47 -185 34 -35 -9 -102 -71 -125 -116
-26 -50 -34 -104 -21 -129 16 -30 75 -29 101 2 89 103 85 100 153 95 35 -3 77
-13 95 -22 69 -36 122 -147 122 -256 0 -102 -51 -265 -124 -398 -25 -45 -32
-51 -50 -45 -42 16 -159 8 -207 -14 -63 -28 -120 -82 -148 -139 -32 -63 -33
-176 -2 -293 12 -46 20 -85 18 -87 -2 -2 -22 9 -44 25 -58 42 -87 108 -87 196
-1 87 14 117 105 211 38 40 75 86 82 104 17 38 7 114 -17 138 -15 15 -19 15
-52 -3 -91 -49 -209 -228 -236 -357 -32 -156 65 -327 239 -422 65 -35 72 -42
83 -82 7 -24 11 -70 8 -103 -7 -99 -70 -161 -163 -161 -96 0 -169 64 -131 116
13 17 27 19 113 19 91 0 98 1 101 21 8 58 -124 83 -199 36 -95 -58 -89 -188
11 -246 32 -19 55 -22 195 -26 5 0 -7 -17 -28 -37 -32 -34 -37 -46 -45 -113
-7 -61 -6 -81 6 -107 9 -18 19 -33 22 -33 3 0 16 -9 28 -20 55 -52 151 -49
243 6 31 19 61 34 67 34 26 0 135 204 169 315 19 64 57 137 79 156 9 8 42 52
72 99 31 47 63 94 73 105 10 11 39 61 65 110 26 50 55 99 65 110 27 30 99 129
99 136 0 16 82 60 101 54 21 -7 23 -22 9 -80 -6 -22 -21 -92 -35 -155 -13 -63
-31 -140 -40 -170 -23 -79 -61 -298 -75 -420 -20 -193 -21 -179 8 -209 59 -60
96 -77 163 -73 23 2 27 7 32 50 48 364 78 493 161 685 27 62 -3 31 -36 -37
l-30 -61 6 60 c13 140 16 253 9 299 -8 47 -11 51 -73 89 -84 52 -149 61 -187
26 -15 -15 -2 11 34 66 32 50 95 152 138 228 44 75 84 135 90 134 5 -2 29 5
52 15 52 23 70 16 114 -45 55 -75 79 -166 65 -242 -11 -57 -37 -67 -134 -53
-75 11 -83 10 -102 -7 -42 -38 -14 -83 67 -109 28 -9 62 -16 75 -16 38 0 118
45 186 105 35 30 65 55 67 55 2 0 25 -18 50 -40 148 -128 273 -123 341 12 24
47 25 55 15 110 -12 72 -24 88 -62 88 -34 0 -49 -27 -49 -90 0 -68 -69 -89
-176 -53 -60 20 -173 130 -221 215 -34 60 -125 144 -181 167 -18 7 -32 17 -32
21 0 18 75 103 118 131 26 18 70 53 97 77 61 55 212 129 280 137 64 7 113 -16
137 -65 40 -78 9 -190 -51 -190 -30 0 -43 11 -47 40 -8 58 -29 147 -37 158
-13 17 -23 15 -47 -10 -40 -43 -21 -145 38 -201 51 -49 125 -49 183 0 18 15
41 27 52 28 27 0 58 44 62 89 5 53 194 393 308 555 39 54 62 79 67 71 5 -8 18
-10 40 -5 29 6 37 2 108 -67 123 -119 227 -167 407 -188 130 -14 154 -23 198
-68 64 -66 73 -119 27 -172 -16 -19 -29 -41 -30 -47 0 -25 43 -42 89 -36 34 5
47 12 62 37 30 49 33 89 13 148 -26 75 -57 114 -114 140 -28 13 -50 28 -50 34
0 11 52 64 63 64 4 0 7 -9 7 -20 0 -23 27 -41 87 -60 65 -20 118 5 209 97 l75
75 64 -61 c61 -59 168 -121 208 -121 37 0 57 19 57 56 0 58 -13 71 -103 98
-108 33 -117 44 -118 136 -1 61 4 82 28 129 35 70 85 98 199 112 125 15 195
26 247 39 90 24 206 -9 331 -92 65 -43 136 -106 136 -120 0 -16 -79 -116 -117
-147 -152 -126 -393 -134 -501 -17 -53 58 -69 110 -52 170 16 57 53 96 91 96
38 0 53 -30 45 -86 -3 -24 -9 -64 -12 -87 -5 -36 -3 -45 11 -50 40 -16 85 43
85 110 0 123 -127 203 -220 140 -53 -35 -73 -79 -78 -167 -4 -67 -1 -85 20
-131 27 -58 66 -102 110 -125 16 -8 28 -18 28 -22 0 -5 -31 -18 -68 -30 -146
-47 -197 -164 -126 -289 28 -49 56 -67 89 -59 32 8 40 38 20 76 -18 35 -10 82
25 138 12 19 18 41 15 51 -8 26 33 45 105 47 124 3 252 24 311 50 52 24 116
74 93 74 -4 0 27 36 71 79 43 44 83 77 89 74 6 -4 23 -6 37 -5 46 4 115 -95
289 -408 109 -196 168 -286 220 -335 28 -26 38 -30 91 -30 57 0 61 2 104 45
42 43 44 47 45 108 0 49 -4 66 -20 82 -39 39 -55 20 -63 -77 -8 -100 -31 -133
-77 -110 -47 24 -49 123 -3 178 40 47 93 69 167 69 118 0 238 -83 367 -253 32
-43 59 -81 59 -85 0 -4 -21 -18 -47 -32 -62 -33 -132 -104 -171 -174 -40 -69
-128 -158 -188 -186 -50 -25 -111 -35 -146 -27 -25 7 -58 62 -58 98 0 36 -19
59 -48 59 -40 0 -52 -17 -52 -72 0 -117 109 -228 224 -228 63 0 87 12 156 75
33 30 66 55 73 55 8 0 20 -11 27 -25 20 -38 74 -74 157 -106 84 -33 119 -36
151 -13 28 19 30 72 3 105 -17 22 -21 22 -92 13 -41 -5 -82 -8 -91 -6 -45 9
-22 178 36 272 19 30 33 56 31 58 -2 2 -14 -2 -27 -9 -28 -14 -24 -9 26 30 33
27 40 29 53 16 8 -8 23 -15 33 -15 23 0 35 -17 140 -195 193 -325 290 -443
460 -559 52 -36 53 -37 21 -31 -37 8 -37 9 -15 -79 5 -23 4 -28 -7 -23 -259
112 -253 112 -355 10 -106 -106 -125 -161 -88 -253 16 -39 16 -42 -2 -61 -48
-53 -110 -109 -119 -109 -6 0 -29 -9 -50 -20 -50 -26 -79 -19 -100 23 -83 164
-73 296 33 409 36 38 76 53 91 34 5 -6 11 -32 12 -57 4 -64 -14 -88 -75 -100
-54 -10 -100 -35 -91 -49 3 -5 31 0 62 11 31 10 65 19 75 19 10 0 30 11 43 25
21 20 25 34 25 83 0 52 -3 61 -32 89 -39 37 -113 68 -200 83 -56 10 -69 9
-110 -9 -48 -21 -87 -63 -113 -124 -23 -56 -21 -170 5 -242 34 -94 34 -108 8
-156 -22 -38 -28 -43 -62 -45 -33 -1 -39 3 -55 35 -23 47 -39 152 -47 324 l-7
138 -56 36 c-31 20 -71 42 -90 50 -39 16 -49 10 -65 -39 -6 -17 -18 -34 -26
-38 -8 -4 -35 -17 -60 -29 l-45 -22 -25 31 c-14 16 -34 30 -46 30 -45 0 -73
-72 -39 -100 8 -7 30 -16 48 -19 32 -7 32 -7 35 -74 6 -136 -48 -265 -125
-298 -25 -10 -53 -19 -64 -19 -21 0 -20 -2 -44 155 -9 61 -23 135 -30 165 -7
30 -27 116 -44 190 -59 253 -73 304 -92 342 -11 21 -22 58 -25 82 -6 38 -3 45
17 60 13 9 30 16 37 16 28 0 75 -44 94 -88 25 -56 19 -112 -22 -211 -16 -39
-25 -73 -21 -76 17 -10 42 34 62 106 28 100 20 176 -24 225 -73 84 -166 88
-212 10 -48 -82 -55 -245 -20 -449 9 -54 15 -100 13 -102 -2 -3 -26 2 -53 11
-65 19 -142 20 -186 1 -50 -21 -120 -113 -134 -177 -4 -19 -22 -67 -40 -106
-25 -56 -42 -78 -76 -101 -63 -42 -74 -36 -93 55 -9 42 -21 97 -27 122 -7 25
-14 58 -17 73 -8 51 -225 207 -287 207 -27 0 -74 -50 -114 -122 -18 -32 -36
-58 -40 -58 -4 0 -16 9 -26 20 -27 30 -100 70 -129 70 -53 0 -143 -144 -155
-250 -5 -37 -16 -71 -29 -90 -24 -32 -27 -40 -13 -40 5 0 12 8 14 18 4 16 5
16 6 0 0 -10 5 -18 11 -18 11 0 15 16 30 120 14 95 56 170 117 206 36 21 45
23 63 12 24 -15 37 -52 45 -128 14 -127 24 -155 73 -207 49 -51 106 -85 129
-76 20 8 16 74 -7 108 -11 17 -20 40 -20 51 0 12 -18 48 -40 80 -60 88 -51
155 31 249 34 38 53 42 103 21 39 -16 40 -24 55 -223 11 -134 13 -141 73 -210
86 -100 155 -121 211 -64 25 24 29 34 19 40 -10 6 -4 10 17 14 35 7 81 51 81
76 0 22 29 63 40 56 4 -3 11 -17 14 -31 22 -87 180 -217 283 -234 77 -13 76
-13 102 9 13 11 28 22 34 25 8 3 7 8 -3 16 -13 9 -12 11 5 9 31 -3 55 11 55
32 0 27 14 24 78 -20 86 -60 138 -59 179 0 15 23 40 54 55 68 47 45 77 127 89
242 6 57 14 107 17 110 4 4 29 19 56 35 l49 28 -6 -47 c-9 -68 10 -193 39
-252 33 -66 136 -163 218 -204 60 -30 98 -37 96 -18 0 4 5 14 12 22 7 7 31 39
52 70 l40 55 45 -44 c95 -91 203 -146 254 -130 12 4 34 15 49 25 14 11 31 19
37 19 6 0 11 6 11 14 0 7 13 19 29 26 20 8 36 26 50 60 12 27 21 53 21 59 0 6
5 11 10 11 6 0 10 -9 10 -21 0 -12 4 -17 11 -13 6 3 36 -18 67 -48 70 -67 137
-120 177 -137 17 -7 38 -18 48 -23 10 -5 40 -12 66 -15 43 -5 51 -2 84 27 20
17 51 54 69 81 17 27 35 49 40 49 5 0 41 -28 80 -61 113 -97 187 -121 238 -76
35 30 72 82 99 139 l22 46 37 -10 c50 -14 145 -4 184 19 99 58 103 199 8 248
-41 21 -118 29 -153 16 -30 -12 -56 -56 -41 -71 5 -5 51 -11 103 -12 106 -4
123 -14 106 -65 -20 -56 -142 -84 -205 -46 -23 13 -32 30 -45 85 -29 115 -6
166 104 233 103 62 170 149 197 256 14 55 15 74 4 133 -26 143 -156 349 -255
402 l-37 19 -19 -24 c-10 -13 -19 -30 -19 -38 0 -29 35 -79 115 -164 50 -53
88 -102 95 -124 20 -60 8 -162 -26 -224 -28 -52 -70 -95 -83 -87 -4 3 -5 42
-2 88 11 178 8 219 -22 270 -69 118 -221 184 -344 149 l-31 -9 -50 101 c-66
134 -86 210 -79 307 8 100 39 199 74 232 57 54 188 99 246 84 19 -4 25 -14 30
-46 6 -50 22 -70 54 -70 37 0 63 18 63 45 0 63 -76 176 -143 211 -31 17 -84
20 -138 10 l-34 -7 37 34 c20 18 61 46 90 63 44 23 65 29 118 28 70 0 116 -19
213 -89 141 -101 209 -1 79 117 -41 37 -157 98 -186 98 -21 0 -20 4 8 48 41
61 95 226 94 280 -2 36 12 83 61 207 34 88 65 167 68 175 3 8 -30 -43 -74
-115 -43 -71 -127 -205 -186 -298 -117 -183 -126 -210 -81 -246 15 -12 33 -21
40 -21 8 0 14 -4 14 -10 0 -6 -27 -10 -60 -10 -34 0 -85 -8 -115 -19 -67 -24
-180 -97 -239 -156 l-44 -44 9 37 c43 194 1 392 -97 450 -33 19 -51 22 -115
20 -64 -3 -83 -8 -124 -33 -50 -31 -79 -64 -90 -102 -4 -17 1 -30 20 -49 35
-35 82 -28 135 20 45 41 76 51 124 42 120 -23 152 -277 65 -528 -26 -78 -30
-103 -30 -191 0 -55 3 -117 7 -136 10 -60 45 -172 71 -231 14 -30 29 -66 34
-80 l9 -25 -19 25 c-67 84 -108 213 -151 474 -17 100 -42 216 -56 259 -33 98
-102 203 -191 287 -247 235 -284 285 -285 382 0 100 36 166 117 214 50 29 75
28 118 -7 59 -46 21 -98 -73 -100 -77 -1 -104 -11 -108 -36 -4 -28 34 -48 108
-57 l56 -7 42 52 c68 83 68 153 2 213 -101 91 -302 38 -372 -98 -32 -62 -30
-156 4 -221 15 -27 43 -67 62 -87 34 -35 47 -56 27 -44 -5 3 -71 20 -147 37
-279 63 -384 126 -384 234 0 20 8 52 19 73 23 45 25 120 3 145 -58 66 -172
-63 -172 -194 0 -87 56 -163 155 -210 33 -16 66 -29 73 -29 7 0 22 -5 34 -11
18 -10 17 -12 -21 -31 -83 -41 -141 -142 -141 -244 0 -98 84 -230 174 -273 24
-12 72 -24 108 -28 53 -5 73 -2 114 16 78 35 94 55 94 121 0 94 -40 106 -110
34 -56 -56 -88 -74 -137 -74 -87 1 -162 62 -183 148 -14 59 0 154 27 185 28
31 93 57 112 45 12 -7 50 -5 127 6 109 16 113 16 180 -5 136 -42 292 -143 384
-250 97 -113 120 -170 179 -459 44 -210 82 -313 154 -420 l31 -45 -35 28
c-159 128 -226 166 -343 192 -61 14 -100 16 -165 11 -47 -4 -99 -8 -114 -9
-23 -2 -36 7 -62 38 l-33 40 46 -1 c26 0 69 -6 95 -14 123 -33 252 33 316 162
24 47 31 74 31 119 0 105 -66 230 -152 286 -36 24 -51 28 -113 27 -78 0 -133
-24 -187 -81 -42 -44 -51 -77 -29 -105 17 -20 21 -21 47 -9 16 8 38 15 48 16
28 3 79 63 73 86 -6 23 19 39 63 39 106 0 200 -123 200 -259 0 -130 -124 -242
-251 -227 -73 8 -151 49 -349 181 -142 95 -207 132 -279 159 -52 19 -106 46
-119 59 -22 22 -23 28 -13 63 15 55 14 74 -6 75 -12 0 -6 6 15 16 50 25 38 73
-19 73 -55 0 -109 -68 -109 -137 0 -57 30 -96 99 -131 51 -25 57 -31 38 -36
-34 -8 -105 -73 -126 -115 -11 -20 -24 -56 -31 -81 l-12 -44 -112 219 c-61
121 -144 269 -184 329 -39 61 -72 116 -72 124 0 36 26 97 53 123 33 34 47 30
47 -12 0 -65 64 -135 149 -164 64 -21 89 -17 114 17 17 23 19 31 9 53 -10 22
-18 25 -65 25 -60 0 -85 18 -111 81 -18 43 -10 82 36 173 46 90 58 132 45 145
-20 20 113 141 188 170 29 10 28 11 -17 7 -64 -5 -162 -53 -232 -116 l-60 -52
-19 41 c-26 55 -97 116 -160 137 -30 10 -81 17 -123 17 -107 -1 -166 -32 -349
-181 -82 -67 -93 -73 -124 -67 -57 11 -204 7 -256 -6 -63 -16 -129 -43 -167
-70 -40 -29 -72 -14 -98 44 -37 80 -21 153 42 200 70 52 143 53 250 2 81 -38
104 -41 122 -13 26 43 -93 100 -209 101 -94 0 -148 -17 -196 -60 -102 -92
-115 -208 -33 -290 24 -24 44 -46 44 -49 0 -3 -11 -20 -25 -38 -13 -18 -35
-56 -48 -86 l-24 -54 -27 43 c-15 24 -34 62 -42 84 -8 23 -21 45 -29 50 -12 6
-8 14 19 38 90 79 80 208 -23 302 -56 50 -168 75 -258 57z m-681 -100 c27 -5
63 -17 80 -26 45 -23 218 -145 218 -154 0 -4 -21 -15 -47 -25 -75 -29 -174
-92 -263 -168 l-82 -70 -18 24 c-40 53 -78 126 -83 161 -5 36 -5 37 36 43 23
4 55 14 72 23 16 8 38 15 49 16 11 1 21 9 22 21 2 11 6 34 10 51 5 25 2 35
-17 47 -31 22 -50 9 -88 -58 -31 -55 -62 -74 -97 -61 -12 5 -15 17 -12 56 2
37 0 49 -9 45 -32 -12 1 41 37 60 39 20 100 34 125 29 11 -2 41 -9 67 -14z
m2238 -6 c72 -29 106 -109 65 -154 -39 -43 -103 -12 -146 71 -22 44 -40 52
-68 33 -32 -23 -26 -59 18 -103 47 -47 115 -67 179 -53 31 7 40 7 35 -2 -12
-19 -146 -211 -154 -220 -5 -5 -29 10 -56 35 -63 59 -144 118 -215 158 -61 34
-73 59 -45 93 22 28 165 109 234 134 81 28 100 29 153 8z m-395 -124 c-3 -5
-16 -15 -28 -21 -19 -9 -19 -8 3 10 28 23 34 26 25 11z m-1298 -195 c55 -18
101 -25 156 -25 121 0 163 -14 193 -65 13 -24 30 -71 36 -105 20 -118 -19
-174 -145 -206 -37 -9 -69 -15 -71 -13 -3 2 -1 24 4 48 8 46 -3 164 -20 217
-18 54 -84 104 -139 104 -94 0 -161 -88 -145 -191 8 -48 45 -92 72 -87 19 4
21 50 7 145 -9 61 3 83 45 83 36 0 86 -56 96 -105 40 -214 -284 -324 -514
-175 -77 49 -123 105 -116 139 11 45 39 85 79 114 99 69 282 146 352 147 18 0
67 -11 110 -25z m-1969 -1161 c22 -4 22 -5 -15 -62 -20 -31 -70 -113 -111
-182 -143 -239 -247 -372 -347 -440 l-40 -27 -2 54 c-2 42 -11 68 -38 114 -20
32 -47 67 -61 78 -13 10 -24 28 -24 39 0 36 78 138 185 241 58 56 103 106 100
111 -9 14 112 70 172 80 45 8 129 5 181 -6z m5155 -11 c108 -34 219 -121 352
-273 l88 -101 -12 -38 c-27 -93 2 -214 69 -281 40 -40 141 -93 167 -88 9 2 25
15 37 31 20 27 20 27 1 46 -11 10 -51 29 -90 41 -38 12 -78 29 -89 38 -29 26
-46 76 -45 134 0 42 2 48 9 30 5 -12 22 -28 37 -34 15 -7 57 -39 92 -71 67
-62 167 -117 213 -117 l27 0 -25 -62 c-14 -35 -28 -69 -31 -75 -15 -37 -183
-23 -329 27 -125 42 -226 103 -314 190 -89 88 -135 151 -267 367 -85 139 -97
164 -97 205 -1 45 0 47 29 51 45 6 124 -2 178 -20z m-5977 -316 c16 -15 -138
-211 -229 -293 -51 -45 -52 -46 -58 -23 -15 53 -9 152 11 194 26 53 78 103
126 121 38 14 137 14 150 1z m6697 2 c111 -31 186 -174 153 -294 l-13 -50 -59
60 c-103 104 -174 196 -174 226 0 14 -7 32 -15 39 -33 28 35 40 108 19z
m-1372 -32 l-24 -22 19 27 c10 14 21 24 23 22 3 -3 -6 -15 -18 -27z m-5361
-121 c0 -2 -8 -10 -17 -17 -16 -13 -17 -12 -4 4 13 16 21 21 21 13z m235 -40
c17 -32 18 -37 3 -73 -9 -21 -32 -75 -50 -121 -19 -45 -39 -86 -44 -91 -25
-24 -223 -57 -277 -47 -41 8 -48 20 -56 98 l-7 57 42 16 c59 22 86 26 101 14
17 -15 17 -29 0 -29 -25 0 -46 -33 -36 -57 9 -24 48 -39 74 -29 8 3 26 0 40
-6 21 -9 29 -7 60 16 20 15 34 33 33 39 -2 7 7 26 20 44 37 52 62 116 62 161
0 51 11 53 35 8z m-98 -37 c-7 -51 -47 -95 -100 -111 -32 -10 -40 -9 -48 3 -5
8 -9 17 -9 21 0 10 140 128 152 128 7 0 9 -15 5 -41z m-257 -43 c0 -2 -8 -10
-17 -17 -16 -13 -17 -12 -4 4 13 16 21 21 21 13z m530 -280 c-40 -69 -129
-191 -135 -184 -4 4 19 125 29 153 3 11 29 33 57 50 28 16 58 38 66 48 32 34
24 7 -17 -67z m6195 -80 c39 -8 84 -18 102 -21 l32 -6 -6 -78 c-6 -88 5 -135
44 -182 25 -29 25 -32 12 -72 -18 -55 -64 -107 -95 -107 -13 0 -24 5 -24 11 0
5 -11 34 -25 63 -14 29 -29 76 -35 105 -5 28 -21 84 -35 124 -14 41 -25 84
-25 97 0 31 -72 97 -122 112 -21 6 -43 17 -48 23 -6 7 27 -3 72 -21 46 -18
115 -40 153 -48z m-1845 2 c0 -13 -8 -18 -30 -18 -34 0 -38 14 -13 49 15 23
17 23 30 6 7 -11 13 -27 13 -37z m-4695 -85 c-9 -32 -26 -78 -37 -103 -12 -25
-29 -64 -39 -87 -16 -39 -22 -43 -53 -43 -19 0 -43 -3 -53 -7 -17 -6 -17 -6 0
14 30 34 48 111 41 169 -7 57 4 87 37 105 28 14 113 27 117 17 2 -4 -4 -34
-13 -65z m6242 25 c14 -23 44 -112 48 -146 3 -18 17 -60 31 -94 25 -61 25 -61
6 -87 -27 -37 -125 -83 -178 -85 -47 -1 -67 15 -79 64 -4 14 -14 33 -23 43
-40 45 8 167 107 270 45 47 73 58 88 35z m-2021 -65 c23 -98 77 -236 88 -226
5 5 5 -3 1 -16 -4 -13 -8 -30 -9 -37 -3 -17 -16 -31 -16 -16 0 9 -6 9 -25 0
-14 -6 -25 -18 -25 -25 0 -8 -5 -11 -11 -8 -6 4 -9 0 -7 -11 3 -16 -3 -18 -37
-15 -46 3 -58 9 -50 22 4 5 -7 12 -24 15 -26 5 -31 13 -41 54 -10 43 -9 54 9
95 12 26 21 55 21 64 0 38 76 130 107 131 7 0 16 -12 19 -27z m-4379 -343
c-52 -99 -87 -147 -135 -178 -23 -15 -25 -15 -38 3 -17 23 -17 63 -1 135 l13
55 85 42 c46 24 94 43 106 43 20 0 18 -7 -30 -100z"/>
<path d="M6814 7396 c-31 -14 -44 -33 -44 -66 0 -28 24 -46 86 -66 55 -17 58
-17 211 10 86 15 174 35 197 45 24 11 123 29 246 45 113 15 228 31 255 35 30
5 -144 9 -435 9 -386 1 -491 -2 -516 -12z"/>
<path d="M575 7197 c215 -107 402 -197 416 -200 40 -10 64 13 61 59 -3 37 -34
84 -55 84 -14 0 -582 175 -701 216 -55 19 -102 34 -105 34 -3 0 170 -87 384
-193z"/>
<path d="M7735 7364 c-38 -14 -220 -72 -403 -129 -184 -57 -342 -111 -353
-121 -24 -22 -24 -69 0 -93 10 -10 41 -22 69 -26 46 -6 57 -3 149 42 119 60
205 114 199 128 -2 5 94 58 213 117 119 59 212 107 206 107 -5 0 -41 -12 -80
-25z"/>
<path d="M164 7369 c-4 -7 -3 -9 3 -6 12 8 105 -88 363 -371 96 -106 184 -195
196 -198 12 -3 35 -4 50 -2 25 3 29 8 32 40 2 20 -1 46 -7 56 -6 11 -120 102
-253 202 -134 101 -268 204 -298 230 -69 59 -77 63 -86 49z"/>
<path d="M7750 7314 c-36 -30 -169 -134 -297 -232 -253 -192 -272 -212 -236
-260 23 -31 84 -46 124 -31 28 11 143 135 187 202 18 27 22 41 14 46 -7 4 36
58 121 150 123 133 165 182 156 180 -2 0 -33 -25 -69 -55z"/>
<path d="M7858 7340 c-4 -19 -15 -75 -23 -125 -9 -49 -34 -172 -56 -272 -47
-220 -48 -244 -13 -272 38 -30 89 -28 110 4 14 21 15 43 9 142 -4 65 -10 217
-13 338 -4 134 -10 206 -14 185z"/>
<path d="M151 7013 l-1 -333 24 -15 c28 -18 93 -15 108 6 14 21 2 128 -21 190
-25 66 -66 237 -91 379 l-18 105 -1 -332z"/>
<path d="M2937 5336 c-19 -20 -34 -77 -51 -206 -9 -63 -25 -164 -36 -225 -25
-136 -38 -228 -45 -325 -5 -72 -6 -76 -46 -112 -23 -21 -53 -44 -68 -51 -43
-22 -74 -41 -90 -56 -19 -17 -88 -9 -110 14 -13 12 -17 43 -19 150 -3 117 -1
137 15 160 38 54 135 86 198 65 30 -10 35 -15 29 -33 -8 -28 -95 -111 -134
-128 -37 -17 -51 -44 -17 -34 62 19 162 97 176 137 23 67 -36 96 -194 97 -187
1 -240 -26 -284 -144 -26 -70 -27 -120 -1 -168 11 -20 20 -43 20 -50 0 -22
-73 -84 -115 -97 -22 -7 -50 -16 -62 -21 l-22 -8 4 179 c3 99 7 261 10 360 l4
180 -92 61 c-87 57 -95 60 -145 56 -47 -3 -56 -8 -90 -47 -61 -71 -68 -90 -10
-28 51 54 70 64 122 60 18 -2 19 -8 12 -99 -4 -54 -9 -111 -11 -128 -19 -156
-26 -280 -22 -371 5 -125 8 -144 35 -182 44 -61 49 -62 158 -53 129 12 224 54
224 102 0 35 19 29 65 -19 43 -47 122 -92 185 -106 28 -7 86 31 63 41 -27 10
-12 24 21 20 23 -3 36 0 40 8 3 8 15 15 27 17 12 2 27 12 33 23 6 11 19 26 28
33 10 7 30 34 45 59 l27 46 13 -39 c8 -22 35 -59 64 -87 45 -43 54 -47 92 -45
53 4 95 36 45 34 -18 -1 -22 4 -20 19 11 75 23 199 28 310 4 72 11 135 16 142
21 27 38 123 36 213 l-1 95 -7 -75 c-13 -138 -47 -232 -63 -172 -3 9 -11 55
-17 102 -6 47 -18 110 -25 140 -24 101 -26 138 -10 164 14 21 14 24 1 29 -9 4
-21 0 -29 -7z"/>
<path d="M3033 5296 c9 -13 23 -48 31 -77 l16 -54 -6 50 c-6 50 -31 105 -47
105 -5 0 -2 -11 6 -24z"/>
<path d="M3233 5002 c-23 -3 -31 -26 -14 -36 5 -3 27 -36 49 -74 67 -112 117
-148 217 -155 21 -1 30 3 33 16 7 35 -18 72 -80 117 -34 25 -82 64 -106 87
-48 44 -63 51 -99 45z"/>
<path d="M3213 4771 c-6 -3 -18 -21 -28 -40 -21 -42 -17 -156 8 -191 8 -12 13
-29 10 -37 -3 -7 -1 -13 5 -11 5 2 26 -13 45 -33 23 -24 56 -43 91 -54 78 -25
114 -7 63 31 -21 16 -22 22 -16 88 4 39 10 79 14 89 6 14 -8 32 -60 80 -68 63
-114 90 -132 78z"/>
<path d="M2510 4545 c0 -8 4 -15 8 -15 5 0 9 7 9 15 0 8 -4 15 -9 15 -4 0 -8
-7 -8 -15z"/>
<path d="M4907 3965 c18 -35 22 -98 13 -192 -9 -103 -23 -141 -45 -123 -21 17
-62 -17 -74 -60 -9 -32 -2 -103 12 -117 9 -9 31 10 91 76 79 86 100 135 100
238 1 75 -1 85 -29 124 -16 23 -41 49 -54 58 -23 15 -24 15 -14 -4z"/>
<path d="M4786 3948 c-12 -60 -14 -141 -3 -215 6 -46 14 -83 18 -83 3 0 16 23
28 51 27 61 34 226 12 253 -20 24 -50 20 -55 -6z"/>
<path d="M2980 3667 c-41 -23 -122 -72 -165 -101 -22 -15 -48 -25 -58 -22 -28
7 -31 -18 -9 -76 11 -30 25 -105 31 -173 11 -120 7 -437 -6 -458 -3 -6 -9 -28
-13 -49 -7 -34 -4 -42 20 -68 16 -17 33 -30 40 -30 6 0 19 17 28 38 15 32 17
74 17 312 0 262 -1 278 -23 339 -13 35 -21 74 -18 86 3 12 24 34 45 50 41 28
158 75 189 75 36 0 45 15 28 47 -23 45 -59 55 -106 30z"/>
<path d="M2440 3609 c-19 -12 -55 -38 -79 -58 -29 -23 -55 -36 -74 -36 -43 0
-75 -44 -59 -80 18 -38 14 -146 -9 -270 -11 -60 -24 -133 -29 -162 -4 -28 -11
-56 -14 -62 -4 -5 -11 -44 -16 -86 -12 -91 -22 -113 -62 -127 -22 -8 -28 -15
-25 -29 6 -23 -119 -152 -131 -135 -5 6 -14 25 -21 42 -35 89 -186 160 -284
133 -77 -21 -74 -109 3 -109 16 0 32 -5 36 -11 5 -8 29 -10 75 -6 63 5 70 4
80 -15 16 -30 4 -138 -21 -196 -12 -26 -35 -62 -53 -80 -31 -33 -115 -88 -121
-81 -1 2 -56 94 -121 204 -141 239 -178 295 -264 399 -150 181 -358 296 -583
322 l-58 7 2 76 c4 129 -58 234 -165 281 -70 31 -172 30 -228 -2 -73 -41 -100
-128 -59 -195 43 -70 170 -98 227 -49 23 21 26 28 17 43 -10 15 -23 17 -75 15
-123 -6 -165 18 -135 77 32 61 144 79 214 34 74 -48 97 -127 70 -242 -11 -51
-12 -52 -84 -86 -54 -26 -87 -51 -133 -101 -149 -163 -145 -350 13 -561 79
-104 169 -153 195 -105 19 36 -1 74 -90 168 -66 70 -91 105 -100 136 -21 81
13 208 72 264 16 15 31 26 33 23 2 -2 -3 -40 -11 -84 -24 -141 1 -231 88 -309
66 -59 129 -80 226 -74 74 5 74 5 98 -27 63 -82 122 -255 131 -385 5 -73 3
-93 -16 -144 -44 -116 -140 -186 -256 -186 -56 0 -63 3 -79 26 -9 15 -20 44
-22 65 -3 21 -12 44 -19 50 -21 17 -57 6 -73 -22 -12 -22 -13 -34 -3 -67 36
-120 139 -197 263 -197 l66 0 -41 -32 c-58 -46 -140 -85 -191 -91 -61 -6 -115
16 -215 88 -45 33 -91 62 -102 66 -28 8 -72 -26 -76 -59 -5 -44 85 -125 196
-179 80 -38 90 -46 77 -59 -14 -14 -259 -639 -252 -645 2 -2 20 25 40 61 72
125 152 242 163 238 17 -6 98 91 135 160 27 51 31 66 26 108 -7 59 1 69 78 98
76 28 131 57 186 96 93 66 87 70 88 -53 2 -162 40 -259 117 -296 22 -11 47
-23 56 -27 24 -12 115 -11 161 2 21 5 53 24 72 41 34 29 35 32 31 87 -2 31 -5
57 -5 57 -1 1 -14 7 -31 14 -39 16 -56 8 -74 -33 -19 -47 -51 -67 -107 -67
-91 0 -149 68 -170 199 -12 80 -7 138 16 186 8 17 30 86 51 155 53 181 54 182
75 75 42 -215 101 -320 270 -478 133 -123 221 -224 250 -286 48 -101 19 -229
-61 -273 -51 -28 -149 -21 -185 12 -14 13 -25 33 -25 46 0 35 27 49 99 49 96
1 136 30 94 67 -30 26 -61 30 -117 14 -102 -30 -147 -115 -106 -200 31 -65 79
-86 196 -86 129 1 195 35 235 124 32 71 20 142 -45 265 -17 33 -17 34 3 54 20
20 24 20 83 8 70 -14 226 -64 267 -85 35 -19 99 -84 118 -121 24 -44 22 -99
-5 -132 -55 -69 -56 -71 -39 -97 20 -30 100 -42 135 -19 35 22 62 89 62 156 0
110 -66 205 -175 253 -45 20 -65 34 -65 46 0 10 -5 18 -11 18 -7 0 9 18 34 40
64 57 91 118 91 205 0 114 -66 230 -158 277 -51 26 -141 26 -200 -1 -65 -28
-126 -91 -126 -129 0 -70 103 -76 180 -9 100 86 218 55 251 -65 13 -51 5 -137
-17 -180 -40 -77 -231 -111 -394 -69 -158 40 -287 116 -400 238 -117 124 -134
165 -194 458 -37 176 -67 279 -105 354 -12 23 -21 44 -19 46 3 3 23 -7 164
-81 88 -47 196 -68 317 -61 122 6 142 -1 222 -83 l60 -61 -88 41 c-115 54
-182 68 -245 52 -130 -35 -232 -163 -232 -293 0 -98 71 -224 158 -280 50 -32
54 -33 233 -15 45 4 88 32 93 60 10 50 1 119 -17 130 -15 9 -28 0 -91 -66 -72
-75 -76 -78 -121 -78 -25 0 -59 7 -74 15 -69 35 -131 147 -131 234 0 125 101
231 224 234 81 2 149 -30 344 -161 191 -128 307 -192 381 -212 99 -26 133
-142 53 -180 -35 -17 -41 -40 -15 -65 11 -11 24 -15 42 -10 14 3 38 9 54 12
37 7 57 39 57 91 0 58 -20 103 -64 139 l-37 30 44 49 c24 27 51 63 60 79 8 17
24 38 35 48 20 18 21 17 77 -90 112 -210 187 -339 250 -428 36 -49 65 -94 65
-100 0 -5 -23 -41 -52 -80 l-51 -69 -24 74 c-13 42 -36 88 -51 103 -72 76
-199 97 -229 37 -17 -34 0 -60 39 -60 18 0 51 -9 74 -20 92 -45 99 -186 16
-345 -35 -68 -168 -186 -225 -200 -49 -13 -28 -22 26 -13 63 11 129 40 174 74
22 16 50 27 80 29 44 4 49 1 103 -49 68 -63 130 -86 250 -93 63 -4 94 -1 121
10 45 20 155 102 163 123 4 10 2 13 -7 8 -6 -4 -1 5 13 20 13 14 30 24 37 22
7 -3 34 5 60 17 39 17 75 22 193 28 149 7 198 18 318 70 48 21 54 22 68 7 18
-18 30 -94 20 -132 -10 -40 -63 -93 -111 -112 -56 -21 -104 -15 -182 21 -86
40 -109 45 -130 30 -27 -20 -8 -44 63 -80 50 -25 71 -30 134 -30 108 0 161 18
211 72 73 79 89 165 47 246 -12 23 -21 51 -19 62 4 29 59 122 76 128 9 4 28
-14 54 -54 l40 -60 -34 -30 c-45 -40 -69 -105 -61 -162 9 -58 55 -129 104
-162 54 -36 154 -51 236 -35 110 21 174 74 132 109 -12 10 -30 6 -95 -24 -107
-48 -165 -55 -226 -25 -65 31 -99 86 -99 156 0 77 52 144 89 114 17 -14 156
-73 215 -91 19 -6 100 -14 180 -17 l146 -7 74 -61 c159 -130 230 -164 342
-164 53 0 138 24 138 39 0 3 17 19 37 35 20 16 33 24 28 16 -10 -15 1 -10 59
32 47 34 60 35 100 4 55 -42 136 -77 189 -82 l52 -5 -43 20 c-75 36 -170 136
-213 225 -56 115 -57 132 -18 206 30 57 86 110 115 110 21 0 46 38 42 66 -8
71 -146 63 -221 -12 -55 -55 -67 -117 -41 -211 11 -40 -11 -25 -59 41 -47 64
-48 66 -46 133 2 63 6 74 49 138 74 111 117 187 221 389 l97 189 6 -40 c11
-60 61 -140 112 -176 24 -17 44 -33 44 -36 0 -4 -21 -17 -46 -30 -51 -28 -94
-83 -94 -121 1 -43 37 -108 72 -130 41 -25 60 -25 81 -2 24 26 21 47 -8 60
-17 8 -25 20 -25 36 0 14 -7 31 -15 40 -11 10 -13 21 -6 38 17 43 46 61 108
62 65 1 166 47 258 115 28 20 103 72 168 115 64 43 117 84 117 92 0 24 88 56
150 56 98 0 181 -55 218 -142 24 -59 18 -155 -15 -218 -40 -77 -88 -114 -158
-120 l-56 -5 -73 77 c-40 42 -78 76 -84 76 -6 0 -19 -11 -28 -24 -14 -23 -14
-28 1 -61 35 -73 125 -124 218 -125 71 0 99 14 161 79 135 145 135 327 0 450
-55 51 -123 81 -180 81 -48 0 -160 -37 -234 -77 l-65 -35 70 71 c53 54 72 68
82 59 10 -8 30 -7 76 5 34 9 103 18 152 20 58 3 113 13 155 27 36 13 75 22 88
22 13 -1 50 12 83 29 56 28 59 28 49 8 -27 -50 -63 -174 -100 -349 -60 -284
-80 -332 -185 -448 -199 -218 -538 -323 -732 -226 -78 39 -95 72 -91 175 4 96
29 138 106 176 43 21 57 24 75 15 12 -6 37 -13 56 -16 22 -4 53 -24 88 -57 46
-44 58 -50 81 -44 35 9 42 21 32 56 -13 43 -40 76 -95 111 -42 28 -60 33 -122
37 -92 4 -120 -7 -182 -75 -139 -152 -113 -379 54 -458 42 -20 38 -27 -25 -45
-101 -29 -186 -92 -209 -154 -14 -37 -14 -120 1 -169 17 -58 75 -118 120 -125
33 -5 39 -3 50 22 11 24 9 32 -10 66 -43 74 -19 153 75 253 33 34 52 46 85 51
65 11 161 44 183 65 27 24 117 43 127 27 4 -7 1 -21 -7 -32 -53 -72 -69 -112
-73 -171 -9 -141 91 -249 243 -261 117 -10 185 36 193 129 3 44 0 59 -20 87
-30 45 -87 73 -148 74 -55 1 -80 -15 -80 -49 0 -25 6 -27 121 -39 65 -7 95
-30 84 -65 -11 -35 -63 -60 -124 -60 -122 0 -163 77 -130 244 10 50 19 63 70
113 72 70 119 135 102 140 -7 3 35 52 95 111 171 170 200 235 257 563 36 208
56 291 86 352 19 37 48 54 34 20 -80 -190 -96 -407 -42 -543 35 -87 50 -194
45 -315 -4 -83 -9 -109 -31 -152 -33 -63 -62 -85 -127 -91 -61 -6 -91 12 -120
68 -23 44 -49 52 -88 24 -57 -39 -1 -123 120 -179 76 -35 129 -41 183 -20 54
20 85 61 90 118 2 23 9 60 14 82 12 48 13 190 1 260 -9 58 -6 68 12 31 20 -45
240 -180 336 -205 37 -10 41 -14 32 -31 -16 -30 -12 -70 12 -109 12 -20 65
-103 117 -186 52 -82 123 -197 158 -255 35 -57 63 -102 63 -98 0 3 -23 66 -51
140 -28 73 -69 185 -91 248 -22 63 -53 146 -70 184 l-30 69 21 16 c12 9 48 27
81 40 36 13 81 42 112 70 49 45 51 49 50 96 -3 77 -45 109 -104 79 -18 -9 -58
-36 -88 -59 -100 -77 -167 -97 -247 -76 -54 15 -167 90 -171 115 -4 17 0 18
35 10 21 -5 66 -9 100 -9 71 0 97 15 151 85 33 43 34 45 27 114 -8 79 -17 96
-51 96 -30 0 -54 -35 -54 -81 0 -52 -24 -69 -96 -69 -99 0 -204 65 -234 145
-6 16 -15 88 -20 159 -8 121 -7 132 16 203 31 94 45 121 81 154 56 52 110 79
160 79 94 0 202 71 247 162 24 47 26 63 26 170 0 109 2 118 21 128 16 9 25 8
39 -5 28 -25 54 -111 55 -180 0 -80 -23 -124 -109 -208 -82 -79 -106 -113
-106 -147 0 -43 14 -53 76 -57 l57 -3 53 54 c34 35 67 84 92 137 77 162 78
235 6 379 -51 101 -119 171 -209 215 -48 24 -56 32 -66 69 -22 82 10 180 78
233 56 44 80 54 108 47 35 -9 85 -58 85 -83 0 -38 -40 -53 -132 -49 -77 3 -83
2 -86 -18 -4 -31 32 -57 94 -65 51 -7 59 -5 97 21 49 33 63 54 72 103 10 52
-23 117 -75 146 -47 26 -139 31 -208 11 -58 -18 -120 -74 -148 -134 -28 -59
-30 -106 -9 -166 23 -66 21 -70 -32 -70 -144 -1 -355 -78 -484 -178 l-67 -51
-17 40 c-18 39 -18 39 8 76 51 76 120 266 136 380 15 97 14 103 -8 103 -14 0
-28 -18 -50 -65 -17 -36 -31 -67 -31 -70 0 -2 -22 -51 -50 -109 -28 -58 -50
-109 -50 -113 0 -5 -13 -24 -30 -43 -16 -19 -29 -40 -30 -46 0 -7 21 -50 46
-98 l45 -85 -65 -81 c-36 -45 -89 -119 -118 -164 -52 -83 -53 -84 -88 -79 -53
8 -169 63 -191 92 -48 61 -146 110 -163 82 -4 -5 -29 -14 -57 -20 -28 -6 -64
-20 -80 -32 -15 -11 -44 -25 -64 -32 -33 -12 -42 -10 -97 16 -76 37 -131 34
-186 -10 -70 -56 -113 -180 -78 -228 27 -38 106 -13 122 39 18 59 76 83 159
66 48 -10 64 -20 119 -75 36 -35 76 -85 89 -112 33 -62 99 -129 162 -160 28
-14 52 -27 54 -29 7 -6 -128 -179 -176 -225 -80 -77 -240 -159 -310 -159 -31
0 -106 34 -124 57 -13 14 -29 102 -31 166 -1 36 28 67 63 67 37 0 49 -24 60
-118 5 -42 13 -80 18 -85 14 -14 47 1 65 28 33 51 -19 176 -87 208 -110 52
-183 -17 -362 -344 -98 -180 -227 -383 -283 -447 l-29 -32 -47 60 c-63 80
-150 151 -232 191 -56 26 -85 33 -168 39 -153 11 -277 64 -292 125 -3 13 -1
65 6 116 10 85 9 95 -6 106 -52 38 -134 -62 -134 -162 0 -37 30 -104 56 -127
27 -24 106 -58 157 -67 l42 -7 -41 -22 c-100 -52 -149 -135 -149 -252 0 -64 5
-83 28 -123 35 -60 74 -81 139 -75 53 6 96 37 123 91 30 60 -4 168 -55 175
-37 6 -42 -9 -25 -87 17 -82 12 -119 -19 -131 -33 -12 -74 15 -99 66 l-21 45
23 45 c30 56 79 100 151 133 49 23 68 26 165 26 88 0 118 -4 148 -19 49 -24
135 -102 172 -156 l28 -41 -34 -35 c-84 -87 -264 -186 -391 -214 -44 -9 -51
-8 -115 25 -95 50 -163 62 -260 48 -73 -11 -79 -10 -100 9 -49 45 -70 187 -37
250 23 45 50 64 122 89 80 27 92 39 85 87 -7 54 -45 86 -92 77 -89 -16 -190
-95 -236 -184 l-22 -45 -35 55 c-81 126 -227 208 -294 165 -20 -14 -25 -24
-22 -53 2 -20 10 -40 18 -44 42 -22 90 -43 139 -60 29 -10 60 -27 67 -36 44
-61 9 -238 -62 -304 -20 -19 -26 -20 -83 -8 -93 18 -165 7 -264 -39 l-86 -40
-61 14 c-81 19 -189 70 -273 129 -68 47 -87 74 -87 120 0 13 -5 25 -10 27 -26
8 94 129 165 165 28 15 29 15 16 0 -17 -21 -20 -21 59 4 82 26 205 27 275 4
115 -39 163 -138 116 -242 -21 -45 -45 -63 -85 -63 -29 0 -53 34 -38 53 5 7 9
47 10 90 1 75 0 77 -23 77 -32 0 -52 -22 -65 -71 -19 -70 7 -143 63 -178 109
-67 241 33 240 181 -1 42 -8 73 -27 111 -27 55 -98 137 -119 137 -7 1 -23 7
-37 15 l-25 14 25 1 c14 0 46 7 72 14 25 8 56 12 67 9 51 -13 111 63 111 141
0 66 -50 170 -91 192 -28 14 -33 14 -55 -1 -31 -20 -30 -31 6 -79 35 -46 37
-73 10 -126 -42 -82 -143 -128 -308 -140 -91 -7 -113 -12 -180 -45 -62 -31
-96 -57 -176 -139 l-98 -100 -29 34 c-60 70 -167 241 -279 443 -126 229 -200
329 -256 347 -43 15 -93 6 -128 -21 -62 -49 -88 -167 -46 -209 28 -28 43 -25
64 14 13 25 16 44 11 80 -13 84 43 126 95 71 35 -37 39 -126 8 -179 -32 -55
-98 -89 -161 -83 -152 14 -428 244 -430 358 -1 35 4 42 44 68 24 17 55 41 68
55 14 14 30 26 37 26 23 0 141 152 147 190 4 27 33 51 53 43 8 -3 46 3 84 12
43 10 84 15 105 11 33 -7 35 -9 35 -50 0 -65 25 -88 82 -73 37 10 44 43 23
106 -22 68 -67 126 -115 151 -29 15 -40 27 -40 43 0 12 17 101 37 197 30 144
37 200 40 315 1 77 3 143 3 147 1 34 150 148 193 148 22 0 23 42 1 64 -20 21
-32 20 -74 -5z m-1614 -604 c160 -40 278 -113 380 -233 67 -78 107 -137 218
-322 49 -80 101 -163 117 -184 20 -28 26 -43 19 -50 -19 -19 -198 -13 -258 8
-79 27 -188 105 -273 193 -135 141 -141 154 -143 298 -1 85 -3 95 -36 149 -37
62 -94 108 -162 128 -31 9 -41 8 -63 -6 -27 -18 -33 -50 -12 -63 6 -4 48 -21
91 -38 103 -39 119 -60 124 -163 l4 -77 -84 86 c-89 90 -149 137 -211 162 -46
20 -48 41 -4 91 52 60 116 65 293 21z m6663 28 c16 -4 31 -22 47 -60 13 -29
24 -55 24 -57 0 -2 -15 -7 -32 -10 -74 -14 -138 -55 -238 -153 -99 -97 -100
-98 -106 -70 -11 51 5 115 38 152 30 35 53 44 60 24 3 -8 18 -7 53 2 35 11 53
22 66 44 25 42 23 62 -6 81 -22 15 -32 15 -67 5 -85 -26 -130 -66 -178 -160
-24 -49 -30 -154 -11 -204 10 -27 6 -34 -75 -128 -181 -211 -329 -299 -500
-299 -31 0 -50 6 -64 20 -11 11 -25 20 -30 20 -6 0 7 27 29 59 22 33 56 85 76
118 19 32 35 54 35 49 0 -5 -9 -24 -21 -42 -28 -46 -18 -43 13 4 21 31 35 40
78 50 28 7 70 12 93 13 59 0 107 19 130 51 17 23 21 47 25 164 5 156 3 151
109 210 137 78 373 139 452 117z m96 -261 c0 -59 -5 -86 -22 -117 -40 -76
-114 -125 -188 -125 -57 0 -47 32 49 155 26 33 50 72 53 87 3 16 23 44 45 64
52 47 63 36 63 -64z m-7007 -28 c43 -45 96 -109 119 -142 41 -58 42 -60 20
-66 -82 -22 -173 7 -230 74 -42 49 -57 93 -57 166 l0 50 36 0 c32 0 44 -9 112
-82z m6261 -52 c-14 -91 -41 -111 -142 -112 -25 0 -27 2 -16 23 6 12 43 64 82
116 l71 94 7 -33 c4 -19 3 -58 -2 -88z m601 115 c0 -2 -12 -14 -27 -28 l-28
-24 24 28 c23 25 31 32 31 24z m-1220 -182 c-7 -8 -17 -15 -22 -15 -6 0 -5 7
2 15 7 8 17 15 22 15 6 0 5 -7 -2 -15z m228 -62 c50 -25 92 -47 92 -50 0 -5
-95 -169 -137 -236 l-23 -37 -38 19 c-58 30 -109 90 -121 141 -14 59 -14 156
0 181 27 51 96 46 227 -18z m-365 -6 c-5 -25 -6 -26 -19 -10 -11 15 -11 20 3
30 21 16 22 14 16 -20z m-5118 -287 c12 -25 26 -56 30 -70 7 -23 6 -24 -10
-10 -9 8 -21 23 -25 35 -46 119 -50 129 -34 110 8 -11 26 -40 39 -65z m-36
-439 c-7 -23 -18 -46 -24 -51 -7 -6 -3 14 9 44 24 63 33 67 15 7z m2076 -772
c57 -44 101 -72 208 -133 l48 -28 -68 -53 c-37 -29 -99 -70 -138 -91 -63 -35
-77 -38 -145 -39 -83 0 -152 26 -159 60 -4 22 29 135 39 135 17 0 62 -45 80
-79 27 -54 45 -66 75 -53 31 14 33 53 5 92 -22 31 -94 70 -128 70 -33 0 -37
24 -11 74 35 70 91 114 124 97 6 -3 37 -26 70 -52z m2233 -29 c34 -49 62 -91
62 -92 0 -2 -25 -1 -56 0 -101 7 -194 -50 -194 -118 0 -36 30 -56 60 -40 11 6
20 15 20 20 0 6 7 10 16 10 9 0 14 6 11 13 -6 17 20 65 42 77 46 24 101 -6
101 -55 0 -94 -131 -157 -257 -126 -51 13 -136 61 -192 108 -46 39 -37 58 51
113 40 24 106 71 146 104 61 52 91 70 122 75 3 0 33 -40 68 -89z m-2577 -13
c-10 -9 -11 -8 -5 6 3 10 9 15 12 12 3 -3 0 -11 -7 -18z m1059 -2 c-25 -14
-53 -19 -159 -29 -48 -5 -52 -4 -35 8 26 19 97 34 164 35 52 0 54 0 30 -14z
m746 -11 l39 -18 -34 -4 c-36 -4 -157 22 -181 39 -26 18 133 3 176 -17z"/>
<path d="M3266 3573 c58 -89 77 -127 85 -165 12 -62 10 -292 -2 -368 -19 -111
-18 -123 15 -138 25 -13 30 -12 48 5 16 17 21 44 30 157 20 241 -8 351 -124
480 -52 59 -83 76 -52 29z"/>
<path d="M2196 3565 c4 -8 10 -12 15 -9 14 8 10 24 -6 24 -9 0 -12 -6 -9 -15z"/>
<path d="M1945 3523 c-14 -21 -62 -99 -107 -173 -44 -74 -95 -160 -114 -190
-35 -56 -43 -97 -22 -118 20 -20 28 -14 58 51 17 34 50 91 74 127 25 36 58 85
75 110 101 147 110 166 102 196 -11 42 -35 41 -66 -3z"/>
<path d="M6114 3454 c25 -99 15 -135 -65 -225 -54 -61 -63 -67 -109 -73 -80
-11 -97 -23 -120 -84 -41 -109 -35 -193 15 -226 41 -27 54 -21 49 22 -6 55 34
163 66 178 94 42 130 64 178 109 30 27 61 64 69 82 27 67 9 165 -40 214 -36
36 -51 37 -43 3z"/>
<path d="M5005 3449 c-49 -12 -113 -73 -158 -149 -31 -53 -31 -58 -29 -163 1
-59 6 -138 12 -175 25 -171 5 -229 -71 -219 -45 6 -48 0 -15 -36 55 -59 115
-69 156 -25 24 26 26 94 9 314 l-12 144 37 75 c45 92 95 137 170 154 38 8 55
18 59 30 13 51 -58 73 -158 50z"/>
<path d="M3990 3430 c0 -5 -19 -18 -43 -28 -51 -23 -110 -81 -180 -177 -56
-78 -76 -144 -77 -253 0 -60 1 -63 33 -82 17 -11 34 -20 37 -20 3 0 11 36 18
80 6 44 20 100 31 123 39 82 119 180 178 220 32 21 59 40 61 42 4 4 -47 105
-53 105 -3 0 -5 -4 -5 -10z"/>
<path d="M5686 3401 c-41 -59 -66 -135 -72 -220 -7 -88 6 -137 33 -126 10 3
14 3 10 -1 -4 -4 -2 -13 4 -21 9 -10 8 -13 -5 -13 -10 0 -14 -4 -11 -10 3 -5
15 -10 25 -10 17 0 19 5 15 38 -4 31 -2 38 13 38 9 1 24 3 32 5 9 3 14 -2 12
-12 -2 -12 4 -15 23 -11 25 4 36 22 14 22 -8 0 -8 4 0 14 9 11 9 15 -1 19 -7
2 -3 3 9 1 18 -3 21 1 20 32 -1 33 -3 35 -26 29 -14 -4 -30 -12 -34 -18 -6 -8
-7 -5 -3 6 3 10 6 22 6 27 0 4 14 10 31 14 35 7 30 26 -7 26 -13 0 -24 5 -24
10 0 6 -9 10 -20 10 -22 0 -28 -25 -7 -33 6 -3 -1 -10 -16 -16 -16 -6 -33 -9
-38 -6 -12 8 0 63 27 118 29 58 30 74 7 80 -15 4 -15 6 5 12 23 8 29 20 13 29
-5 3 -21 -12 -35 -33z m24 -248 c0 -13 -3 -13 -15 -3 -8 7 -12 16 -9 21 8 13
24 1 24 -18z"/>
<path d="M4270 3413 c0 -10 5 -37 10 -61 6 -23 14 -98 19 -165 7 -101 13 -135
36 -184 26 -59 49 -79 74 -63 8 5 9 14 2 32 -5 15 -17 95 -26 179 -18 170 -35
223 -84 258 -28 21 -31 21 -31 4z"/>
<path d="M4608 3413 c7 -3 16 -2 19 1 4 3 -2 6 -13 5 -11 0 -14 -3 -6 -6z"/>
<path d="M5336 3375 c3 -11 13 -38 21 -59 26 -73 19 -236 -11 -236 -21 0 -66
-47 -66 -69 0 -22 51 -85 82 -102 17 -9 18 -7 12 17 -6 24 -1 32 37 65 43 37
44 37 47 112 6 109 -15 172 -79 239 -28 29 -47 44 -43 33z"/>
<path d="M5763 3383 c-26 -5 -30 -21 -8 -29 8 -4 15 -12 15 -20 0 -8 7 -14 16
-14 9 0 14 6 12 12 -3 7 1 19 9 26 7 8 11 18 8 23 -6 9 -13 10 -52 2z"/>
<path d="M4100 3370 c0 -5 5 -10 10 -10 6 0 10 5 10 10 0 6 -4 10 -10 10 -5 0
-10 -4 -10 -10z"/>
<path d="M5891 3345 c-17 -20 -31 -43 -31 -51 0 -9 -8 -23 -17 -32 -16 -16
-16 -17 0 -20 9 -2 17 -7 17 -12 0 -4 12 -10 26 -13 22 -4 34 3 65 37 44 47
53 67 45 102 -5 19 -13 24 -40 24 -26 0 -41 -8 -65 -35z"/>
<path d="M4138 3340 c4 -27 2 -30 -23 -30 -25 0 -27 -2 -21 -32 3 -18 8 -52
12 -76 6 -38 24 -70 24 -43 0 6 5 11 11 11 8 0 8 -5 -1 -15 -15 -18 -6 -45 14
-45 21 0 31 21 15 31 -11 6 -8 9 8 9 12 0 24 4 28 10 3 5 13 6 22 3 14 -5 13
-8 -5 -14 -12 -5 -22 -13 -22 -19 0 -6 4 -9 8 -6 4 3 25 1 45 -4 29 -6 37 -5
37 6 0 27 -34 169 -43 182 -5 6 -26 12 -47 12 -32 0 -39 4 -44 25 -9 35 -23
31 -18 -5z m102 -42 c0 -4 -13 -8 -30 -8 -16 0 -30 4 -30 8 0 5 14 9 30 9 17
0 30 -4 30 -9z m-80 -8 c0 -13 -20 -13 -40 0 -12 8 -9 10 13 10 15 0 27 -4 27
-10z m75 -60 c3 -5 1 -10 -4 -10 -6 0 -11 5 -11 10 0 6 2 10 4 10 3 0 8 -4 11
-10z"/>
<path d="M4708 3345 c-3 -3 -22 -6 -42 -7 -38 -1 -54 -12 -36 -23 5 -3 10 -1
10 6 0 10 3 10 12 1 8 -8 8 -15 -2 -27 -13 -16 -35 -21 -26 -6 5 8 -43 35 -50
28 -12 -11 13 -46 41 -57 19 -7 32 -17 29 -22 -3 -4 0 -8 5 -8 6 0 11 5 11 10
0 6 7 10 15 10 8 0 15 5 15 10 0 6 12 10 26 10 14 0 32 7 40 15 14 13 12 15
-16 15 -29 0 -32 3 -28 25 5 26 5 29 -4 20z"/>
<path d="M4080 3329 c0 -5 5 -7 10 -4 6 3 10 8 10 11 0 2 -4 4 -10 4 -5 0 -10
-5 -10 -11z"/>
<path d="M6329 3318 c-1 -7 -3 -56 -3 -108 -1 -52 -6 -115 -11 -139 l-8 -44
34 7 c18 3 37 10 41 14 3 4 10 45 15 91 4 47 13 86 19 88 6 2 27 -9 45 -24 30
-25 29 -23 -10 25 -40 48 -102 102 -115 102 -3 0 -7 -6 -7 -12z"/>
<path d="M4061 3245 c0 -5 7 -26 14 -45 9 -23 14 -28 14 -15 0 11 -6 31 -14
45 -8 14 -14 21 -14 15z"/>
<path d="M4680 3230 c0 -5 -7 -10 -17 -10 -9 0 -14 -3 -10 -6 8 -8 47 5 47 17
0 5 -4 9 -10 9 -5 0 -10 -4 -10 -10z"/>
<path d="M6605 3220 c10 -11 20 -20 23 -20 3 0 -3 9 -13 20 -10 11 -20 20 -23
20 -3 0 3 -9 13 -20z"/>
<path d="M4259 3105 c-1 -6 -1 -14 0 -19 1 -5 -6 -3 -15 5 -16 13 -16 12 -5
-9 7 -12 16 -20 22 -17 5 4 9 1 9 -4 0 -6 4 -11 8 -11 12 0 8 38 -6 52 -7 7
-13 8 -13 3z"/>
<path d="M4150 3080 c0 -5 5 -10 10 -10 6 0 10 5 10 10 0 6 -4 10 -10 10 -5 0
-10 -4 -10 -10z"/>
<path d="M3598 3043 c6 -2 18 -2 25 0 6 3 1 5 -13 5 -14 0 -19 -2 -12 -5z"/>
<path d="M5760 3035 c0 -8 5 -15 10 -15 6 0 10 7 10 15 0 8 -4 15 -10 15 -5 0
-10 -7 -10 -15z"/>
<path d="M4189 3024 c-1 -5 -1 -12 0 -16 0 -5 -3 -8 -8 -8 -6 0 -7 -15 -4 -32
4 -29 -1 -39 -44 -83 -36 -39 -69 -60 -137 -89 -85 -36 -94 -38 -207 -39 -66
-1 -119 -5 -119 -8 0 -17 73 -69 106 -75 20 -4 78 -4 127 0 113 8 150 28 243
131 37 42 76 75 86 75 27 0 22 22 -12 55 -16 16 -30 32 -30 37 0 17 29 7 48
-17 11 -14 28 -25 38 -25 14 0 16 2 6 9 -7 4 -20 20 -27 35 -13 25 -13 27 3
22 9 -3 24 -1 32 4 13 8 12 10 -2 10 -10 0 -18 4 -18 9 0 11 -33 9 -42 -3 -4
-6 -13 -4 -22 3 -9 8 -17 10 -17 5z"/>
<path d="M6395 2960 c-116 -30 -120 -33 -135 -86 l-13 -47 34 -28 c19 -16 37
-29 40 -29 4 0 9 13 12 30 8 36 35 51 137 75 41 9 82 21 90 25 24 12 18 53
-10 67 -33 17 -70 15 -155 -7z"/>
<path d="M5700 2921 c0 -6 4 -13 10 -16 6 -3 7 1 4 9 -7 18 -14 21 -14 7z"/>
<path d="M4481 2854 c-59 -38 -94 -54 -118 -54 -42 0 -42 -10 2 -49 43 -38 87
-41 148 -10 49 25 117 77 117 89 0 15 -45 79 -55 79 -5 -1 -48 -25 -94 -55z"/>
<path d="M3541 2862 c-20 -13 -52 -17 -175 -18 -83 -1 -152 -6 -154 -11 -5
-17 51 -63 90 -74 79 -21 279 25 295 68 5 13 -14 53 -25 52 -4 0 -18 -8 -31
-17z"/>
<path d="M5620 2836 c-33 -34 -59 -50 -108 -66 -82 -25 -93 -25 -145 1 l-42
21 25 -28 c68 -76 108 -98 170 -92 55 6 95 31 146 94 33 39 36 48 28 76 -5 17
-14 33 -19 35 -6 2 -30 -17 -55 -41z"/>
<path d="M6365 2730 c3 -5 15 -10 26 -10 11 0 17 5 14 10 -3 6 -15 10 -26 10
-11 0 -17 -4 -14 -10z"/>
<path d="M166 1354 c-14 -13 -16 -57 -15 -342 1 -180 3 -316 6 -302 22 143 60
299 79 327 12 18 30 67 40 109 29 121 -2 224 -67 224 -15 0 -35 -7 -43 -16z"/>
<path d="M7759 1349 c-25 -25 -24 -34 31 -294 59 -274 74 -363 64 -384 -8 -16
-37 11 -199 187 -294 318 -358 382 -381 382 -30 0 -64 -36 -64 -69 0 -37 25
-60 281 -252 172 -128 287 -219 334 -262 25 -23 -65 18 -418 191 -340 167
-380 184 -402 174 -32 -15 -48 -54 -35 -87 13 -35 126 -87 275 -125 293 -77
611 -178 563 -179 -34 -1 -337 38 -698 89 -311 44 -323 44 -328 -21 -3 -30 2
-41 24 -58 15 -11 34 -21 43 -21 10 0 23 -6 30 -13 15 -15 335 -12 391 3 19 6
152 10 295 10 239 1 262 2 283 19 21 19 22 25 22 191 0 100 4 179 10 191 6 11
14 63 17 117 5 79 3 104 -11 129 -9 18 -16 41 -16 51 0 48 -73 69 -111 31z"/>
<path d="M715 1228 c-11 -6 -49 -43 -85 -82 -243 -266 -454 -485 -464 -480 -6
3 -2 -2 8 -10 13 -11 15 -16 6 -16 -7 0 -11 -2 -8 -5 3 -3 43 8 89 24 232 81
382 123 452 125 50 2 106 14 182 39 145 48 155 56 155 115 0 52 -6 64 -35 80
-28 14 -37 10 -453 -193 -200 -97 -366 -175 -368 -172 -5 5 71 70 186 158 147
112 160 121 154 104 -3 -8 -1 -15 4 -15 14 0 177 111 230 156 39 33 42 39 42
85 0 40 -5 55 -25 74 -26 27 -39 29 -70 13z"/>
<path d="M1075 744 c-142 -20 -733 -101 -810 -111 -54 -6 0 -9 240 -14 171 -4
375 -12 455 -18 154 -12 236 -8 266 14 24 17 22 91 -3 116 -27 26 -50 28 -148
13z"/>
</g>
</svg>
