<?xml version="1.0" standalone="no"?>
<!DOCTYPE svg PUBLIC "-//W3C//DTD SVG 20010904//EN"
 "http://www.w3.org/TR/2001/REC-SVG-20010904/DTD/svg10.dtd">
<svg version="1.0" xmlns="http://www.w3.org/2000/svg"
 width="1200.000000pt" height="1200.000000pt" viewBox="0 0 1200.000000 1200.000000"
 preserveAspectRatio="xMidYMid meet">
<metadata>
Created by potrace 1.14, written by Peter Selinger 2001-2017
</metadata>
<g transform="translate(0.000000,1200.000000) scale(0.100000,-0.100000)"
fill="#000000" stroke="none">
<path d="M0 6000 l0 -6000 6000 0 6000 0 0 6000 0 6000 -6000 0 -6000 0 0
-6000z m1650 5106 c0 -9 -231 -115 -263 -121 -19 -4 -207 17 -453 49 -230 31
-455 60 -499 65 -53 5 136 9 568 10 356 0 647 -1 647 -3z m4015 -7 c90 -12
149 -36 198 -78 78 -69 135 -202 122 -287 -6 -42 -8 -44 -39 -44 l-33 0 5 68
c7 111 -42 199 -143 251 -101 52 -194 47 -322 -17 -130 -66 -193 -72 -193 -19
0 42 71 87 180 115 92 24 125 25 225 11z m922 -15 c119 -34 193 -93 162 -130
-20 -25 -74 -15 -172 31 -53 25 -116 49 -141 55 -94 21 -232 -29 -291 -107
-43 -57 -62 -135 -48 -198 l10 -45 -32 0 c-38 0 -45 12 -45 74 0 132 100 276
220 315 102 33 233 35 337 5z m4968 15 c-116 -14 -358 -47 -767 -105 -213 -30
-401 -54 -418 -54 -16 0 -49 6 -72 14 -24 8 -62 19 -85 26 -37 9 -43 14 -43
38 0 38 25 70 63 81 18 5 323 9 712 9 428 0 654 -4 610 -9z m-7070 -20 c33 -6
84 -23 115 -39 61 -31 189 -124 260 -188 43 -39 44 -41 15 -32 -16 5 -52 17
-80 27 -27 11 -71 25 -97 31 -26 7 -69 25 -95 40 -76 45 -133 63 -208 69 -178
14 -328 -80 -328 -203 0 -42 -3 -46 -29 -51 -16 -3 -31 -10 -34 -14 -3 -5 -16
-9 -29 -9 -13 0 -27 -4 -30 -10 -3 -5 -28 -10 -54 -10 -47 0 -48 0 -71 50 -28
61 -177 209 -270 270 l-65 42 45 -7 c110 -18 238 -93 360 -212 41 -40 75 -73
75 -73 0 0 0 22 1 50 0 40 7 60 37 102 98 143 278 205 482 167z m3274 0 c57
-13 144 -54 183 -87 32 -27 88 -99 88 -113 0 -5 -18 -13 -40 -19 -40 -11 -41
-11 -88 38 -54 56 -112 80 -212 89 -114 10 -210 -23 -360 -122 -59 -39 -73
-44 -145 -49 l-80 -7 45 42 c65 60 196 156 255 187 27 14 73 31 100 38 62 15
195 17 254 3z m-4444 -30 c36 -32 77 -94 89 -135 6 -20 2 -23 -36 -27 -24 -3
-57 -9 -74 -12 -25 -6 -33 -3 -46 17 -9 12 -33 41 -52 62 -41 46 -45 70 -14
103 33 35 88 31 133 -8z m6654 -17 c98 -49 76 -65 -94 -67 -92 -1 -117 -5
-152 -23 -59 -31 -108 -85 -134 -147 -20 -49 -26 -55 -70 -69 -26 -9 -58 -16
-70 -16 -20 0 -21 3 -15 48 23 158 161 281 338 300 96 11 132 6 197 -26z
m-9308 -72 c156 -50 285 -93 288 -96 8 -7 -18 -22 -61 -35 -35 -11 -45 -8
-285 106 -223 106 -290 140 -241 122 9 -3 143 -47 299 -97z m1659 82 c20 -9 9
-11 -57 -11 -46 -1 -83 3 -83 8 0 5 -10 12 -22 15 -13 3 13 3 57 1 44 -2 91
-8 105 -13z m9105 -97 c-188 -92 -190 -93 -250 -88 -33 3 -66 9 -72 12 -11 6
473 168 502 169 6 0 -75 -42 -180 -93z m-10822 -149 c53 -42 97 -80 97 -84 0
-5 -10 -18 -23 -30 l-23 -22 -155 163 c-205 216 -211 224 -94 130 55 -44 144
-114 198 -157z m7837 224 c0 -5 -8 -10 -18 -10 -10 0 -37 -9 -60 -20 -22 -11
-45 -20 -49 -19 -9 1 108 59 120 59 4 0 7 -4 7 -10z m-8135 -425 c25 -121 59
-282 75 -358 16 -76 27 -151 24 -165 -15 -76 -95 -106 -151 -58 l-28 24 -2
494 -1 493 18 -105 c10 -58 39 -204 65 -325z m75 230 c56 -93 121 -201 144
-240 l42 -70 -17 -55 c-10 -30 -18 -68 -19 -85 0 -25 -2 -27 -11 -13 -7 13
-168 421 -246 628 -12 30 6 2 107 -165z m11213 90 c-40 -45 -65 -65 -81 -65
-19 0 -9 12 55 64 43 36 79 65 81 65 2 1 -23 -28 -55 -64z m-7193 -39 c0 -2
-9 -6 -20 -9 -11 -3 -18 -1 -14 4 5 9 34 13 34 5z m3270 -28 l20 -33 -23 -7
c-12 -3 -39 -6 -59 -7 -34 -1 -38 2 -38 23 0 27 33 56 62 56 10 0 27 -15 38
-32z m-6237 -124 c87 -22 116 -40 133 -81 30 -72 -20 -140 -96 -130 -40 5
-270 122 -270 137 0 8 153 90 167 90 3 0 33 -7 66 -16z m3910 -1 c-7 -2 -19
-2 -25 0 -7 3 -2 5 12 5 14 0 19 -2 13 -5z m3341 -93 c17 -21 26 -43 26 -67 0
-34 -1 -35 -22 -21 -25 16 -88 114 -88 135 0 20 52 -9 84 -47z m-548 -37 c-16
-55 -28 -163 -22 -210 7 -63 42 -137 81 -173 24 -23 35 -25 113 -25 l87 0 9
-37 c12 -48 -8 -80 -62 -96 -54 -16 -72 -15 -148 10 -91 30 -166 101 -188 179
-22 76 -20 196 5 228 11 13 19 29 19 35 0 7 13 33 30 59 23 36 35 47 55 47 20
0 25 -4 21 -17z m-76 1 c0 -10 -84 -128 -147 -207 -54 -67 -57 -69 -66 -46
-13 34 -2 123 20 159 21 36 66 67 126 86 47 14 67 17 67 8z m-3270 -96 c0 -17
-13 -30 -53 -52 -80 -46 -205 -133 -272 -190 -96 -82 -85 -78 -142 -51 -66 30
-102 82 -110 159 -3 31 -3 56 0 56 2 0 26 -31 52 -70 l48 -69 76 70 c98 91
205 172 278 210 l58 30 32 -35 c18 -20 33 -46 33 -58z m2407 56 c28 -21 59
-71 50 -81 -5 -4 -124 36 -242 80 l-30 12 30 7 c59 13 162 4 192 -18z m-6145
-91 c136 -101 158 -125 158 -173 0 -74 -72 -120 -137 -86 -31 15 -201 202
-218 238 -8 18 -3 27 35 59 25 22 48 39 52 39 4 0 53 -35 110 -77z m1478 48
c0 -21 -87 -124 -146 -171 -35 -29 -64 -54 -64 -56 0 -3 17 4 38 14 119 59
492 147 607 143 39 -1 103 5 144 14 41 8 76 13 78 11 6 -5 -109 -42 -180 -57
-64 -14 -63 -20 3 -38 96 -28 181 -94 221 -173 23 -45 24 -64 3 -72 -26 -10
-29 -8 -63 39 -63 88 -228 142 -407 131 -390 -22 -799 -287 -959 -620 -43 -90
-67 -178 -105 -391 -17 -93 -40 -201 -51 -239 l-21 -70 -19 55 c-22 65 -23
106 -5 224 45 286 106 456 215 603 73 97 104 124 164 146 35 13 62 35 105 84
31 36 80 91 108 121 48 52 102 126 181 246 18 27 41 53 51 57 25 10 102 9 102
-1z m-755 -98 c54 -19 105 -55 104 -73 0 -8 -10 -46 -22 -85 l-23 -70 -24 42
c-34 61 -88 81 -178 65 -134 -22 -203 -123 -237 -345 -6 -34 -9 -38 -33 -35
l-27 3 2 107 c1 129 25 220 77 292 41 58 104 103 155 112 20 3 41 7 46 9 18 7
119 -7 160 -22z m9705 12 c35 -18 37 -33 10 -111 -11 -32 -22 -87 -24 -121 -4
-78 -22 -106 -90 -138 -44 -21 -59 -24 -81 -15 -21 8 -26 15 -22 33 28 118 37
167 37 198 0 33 37 106 78 152 19 21 54 22 92 2z m-4640 -59 c59 -39 92 -103
98 -190 6 -90 -19 -156 -68 -181 -29 -15 -34 -15 -56 0 -29 19 -29 19 -3 131
24 100 21 152 -12 185 -44 44 -125 8 -168 -76 -34 -67 -36 -170 -4 -231 70
-131 194 -198 395 -213 l103 -7 -80 -8 c-44 -4 -118 -18 -165 -32 -109 -31
-134 -30 -196 6 -139 79 -214 245 -186 411 19 112 70 187 152 224 51 23 140
14 190 -19z m3235 -99 c-4 -14 -16 -34 -27 -44 -20 -18 -21 -18 -13 7 9 30 36
72 42 66 2 -2 1 -15 -2 -29z m-3916 -71 c-7 -36 -16 -66 -20 -66 -13 0 -39 43
-39 63 0 19 57 83 66 74 3 -2 -1 -34 -7 -71z m-5377 -89 c-9 -18 -11 -14 -11
28 1 46 1 48 11 22 7 -20 7 -35 0 -50z m10645 -133 c29 -8 54 -18 57 -22 3 -5
-23 -37 -58 -71 l-63 -63 -41 11 c-23 7 -73 12 -112 12 l-71 1 36 39 c20 22
43 55 52 74 11 24 24 35 42 37 38 5 99 -2 158 -18z m-10467 -17 c33 -14 89
-44 124 -67 l64 -41 -19 -42 c-18 -41 -20 -42 -63 -40 -65 4 -162 60 -207 120
-37 49 -59 86 -59 99 0 13 100 -5 160 -29z m-360 -107 c18 -35 19 -45 8 -51
-7 -4 -56 -41 -108 -82 -148 -115 -184 -128 -238 -82 -39 32 -43 55 -22 102
33 72 150 163 262 203 l53 19 11 -33 c7 -18 22 -52 34 -76z m8813 -27 c43 -15
47 -20 47 -48 0 -43 -44 -101 -113 -149 -75 -51 -118 -65 -201 -66 l-69 0 60
30 c63 31 79 49 103 110 11 31 105 140 120 140 3 0 26 -8 53 -17z m-4209 -59
c25 -53 26 -57 9 -70 -15 -11 -16 -13 -2 -14 14 0 48 -30 62 -56 3 -6 -31 0
-76 14 -57 16 -113 25 -183 27 -107 3 -164 12 -164 24 0 10 69 72 98 89 12 6
43 12 69 13 38 1 153 21 159 28 1 0 14 -24 28 -55z m-2867 16 c28 -12 58 -29
67 -38 13 -15 11 -22 -16 -64 l-31 -47 -40 35 c-54 50 -101 67 -159 61 -128
-16 -238 -133 -274 -295 -28 -126 2 -243 86 -336 27 -29 59 -74 69 -100 l20
-46 -39 20 c-92 47 -184 176 -211 296 -38 170 83 421 248 513 55 30 62 32 143
28 58 -3 101 -11 137 -27z m4820 14 c-3 -3 -12 -4 -19 -1 -8 3 -5 6 6 6 11 1
17 -2 13 -5z m-3188 -82 c20 -47 17 -65 -22 -133 -43 -78 -50 -85 -100 -94
-37 -7 -37 -7 -28 19 25 64 121 236 132 236 4 0 12 -13 18 -28z m5657 -14 c47
-54 48 -50 -6 -121 -68 -90 -114 -99 -141 -29 -13 33 18 98 65 140 43 38 56
39 82 10z m-8317 -40 c88 -42 111 -58 116 -78 4 -14 22 -66 40 -117 19 -50 37
-117 41 -150 l6 -58 -55 83 c-31 45 -112 143 -181 217 -69 74 -126 139 -126
145 0 22 55 8 159 -42z m9784 -44 c3 -4 -27 -32 -67 -63 -167 -128 -308 -265
-341 -331 -69 -138 -64 -338 16 -586 34 -107 35 -116 10 -138 -18 -16 -20 -16
-40 13 -30 41 -93 198 -124 306 -32 109 -47 200 -47 281 0 56 5 72 60 175 57
107 92 161 76 114 -16 -44 -36 -142 -36 -175 0 -31 3 -28 24 30 65 185 169
308 305 361 44 17 151 26 164 13z m-10092 -129 l56 -41 -58 4 c-134 10 -174
-18 -185 -127 -4 -41 -13 -79 -21 -87 -23 -23 -89 -18 -107 8 -48 68 21 243
125 318 l41 29 47 -31 c25 -18 71 -51 102 -73z m7279 -158 l126 -248 12 73
c13 73 57 178 79 185 18 6 37 -130 24 -169 -19 -54 -14 -140 12 -190 19 -38
21 -49 10 -63 -7 -10 -14 -22 -15 -27 -10 -29 -106 76 -190 207 -50 77 -245
432 -250 454 -3 13 35 31 57 27 6 -1 66 -113 135 -249z m-4810 237 c0 -9 -111
-57 -117 -50 -3 3 5 10 18 15 13 5 40 16 59 25 41 18 40 18 40 10z m3038 -122
c15 -26 16 -68 2 -77 -5 -3 -10 -15 -10 -26 0 -23 -42 -69 -64 -69 -10 0 -18
19 -26 56 -13 61 -7 110 17 162 l16 34 26 -29 c14 -16 32 -39 39 -51z m-3106
16 c53 -23 116 -85 147 -147 31 -60 28 -76 -20 -95 l-41 -17 -39 45 c-39 44
-144 106 -181 106 -27 0 -24 57 7 103 29 42 38 42 127 5z m5545 -7 c34 -16 88
-46 120 -67 98 -63 353 -246 353 -255 0 -13 -88 -42 -110 -36 -11 3 -18 1 -14
-4 16 -26 -26 -3 -80 44 -67 59 -245 162 -343 199 -52 19 -63 27 -63 46 0 38
40 102 64 102 6 0 39 -13 73 -29z m1263 -115 c0 -59 -11 -76 -35 -52 -29 29
-13 105 23 106 8 0 12 -17 12 -54z m-7501 -295 c-41 -50 -154 -194 -183 -233
l-28 -38 28 -10 c86 -31 199 -112 253 -181 20 -25 54 -78 76 -119 54 -99 167
-213 260 -262 120 -63 264 -71 307 -18 9 12 20 48 24 81 5 43 12 62 25 70 11
5 19 18 19 28 0 25 21 32 51 17 121 -60 -1 -362 -160 -392 -39 -8 -182 23
-256 55 -42 18 -139 107 -192 176 -18 22 -31 33 -31 25 2 -33 -3 -66 -12 -80
-8 -13 -17 -11 -64 13 -54 28 -66 45 -66 97 0 74 -48 199 -105 273 -31 40
-173 147 -195 147 -5 0 -20 -16 -33 -35 -20 -29 -26 -33 -31 -20 -18 49 -4 88
60 157 24 26 63 77 88 115 57 88 137 163 175 163 9 0 6 -9 -10 -29z m-1300
-138 c1 -41 -6 -93 -15 -120 -15 -48 -55 -135 -59 -131 -2 2 8 46 21 98 14 52
28 136 31 185 8 103 20 85 22 -32z m9055 40 c30 -135 76 -265 132 -373 l53
-105 -49 55 c-27 30 -68 87 -91 127 -44 77 -99 222 -99 261 0 32 21 112 29
112 4 0 15 -35 25 -77z m-8374 -130 c-1 -50 -11 -60 -75 -78 -192 -52 -333
-159 -605 -460 l-117 -130 16 -36 c12 -27 38 -52 101 -94 47 -31 95 -66 107
-77 22 -21 115 -168 127 -203 6 -17 21 -6 110 85 56 58 133 149 171 203 38 54
71 94 75 90 3 -5 14 -27 24 -50 l18 -41 -30 -54 c-45 -78 -104 -154 -178 -230
-72 -74 -86 -79 -158 -53 -35 12 -43 12 -75 -5 -46 -23 -77 -78 -85 -153 -7
-66 -11 -66 78 -2 27 20 50 34 52 32 2 -2 -1 -20 -7 -40 -6 -21 -16 -70 -24
-109 -11 -61 -11 -69 1 -56 8 8 23 29 32 46 69 126 154 254 286 430 115 154
203 178 331 92 39 -26 89 -60 167 -111 67 -44 72 -58 78 -213 l5 -140 72 95
c117 152 117 152 196 164 64 10 93 -4 288 -132 117 -77 159 -110 169 -133 9
-21 11 -60 6 -132 -4 -57 -9 -251 -11 -433 -3 -181 -8 -345 -11 -364 -6 -31
-5 -33 12 -27 10 5 33 13 49 18 34 11 135 112 135 135 0 9 -10 34 -21 57 -12
22 -27 52 -34 66 -35 68 48 303 127 360 56 41 169 64 278 57 47 -4 94 -3 104
2 26 10 122 -6 168 -28 38 -18 86 -54 143 -106 l33 -31 11 76 c7 41 16 95 21
120 5 25 17 88 25 140 9 52 24 145 35 205 27 158 40 249 40 287 0 33 20 103
42 146 9 18 20 22 55 22 45 0 119 -37 129 -65 3 -8 21 -23 38 -33 64 -38 83
-76 106 -212 29 -163 24 -350 -10 -450 -13 -36 -28 -71 -33 -78 -6 -8 -14 -78
-18 -155 -4 -78 -14 -205 -23 -282 -10 -94 -11 -143 -5 -152 7 -8 7 -18 0 -32
-6 -11 -11 -29 -11 -41 0 -20 3 -21 43 -15 25 5 57 20 79 39 20 17 50 41 66
53 16 12 37 38 46 58 17 35 17 35 -12 65 l-29 29 -23 -42 c-22 -40 -65 -87
-80 -87 -18 0 -18 29 1 35 10 4 19 11 19 16 0 5 7 9 15 9 8 0 15 5 15 10 0 6
11 27 24 48 l24 38 -20 27 c-11 16 -18 31 -14 34 3 4 6 1 6 -6 0 -7 5 -9 10
-6 18 11 11 25 -12 26 -22 1 -22 1 2 8 29 8 34 34 8 39 -13 2 -16 -1 -12 -12
3 -9 1 -16 -5 -16 -6 0 -12 12 -12 28 -1 15 -3 47 -5 72 -4 52 14 122 29 113
6 -3 7 -1 3 5 -4 6 0 26 9 43 14 25 21 30 41 25 13 -3 36 -9 52 -12 15 -4 44
-22 65 -40 20 -19 41 -34 47 -34 5 0 53 -42 106 -94 l97 -94 -8 -49 c-15 -95
-21 -154 -16 -158 2 -3 18 -5 34 -5 19 0 30 6 34 18 2 10 14 22 25 27 42 19
80 80 88 142 13 100 41 186 79 241 20 30 41 61 46 70 24 39 89 91 122 97 30 5
41 2 74 -24 21 -17 42 -31 48 -31 5 0 30 -16 55 -35 26 -19 52 -35 59 -35 7 0
33 39 59 88 26 48 66 105 89 127 36 34 47 40 83 39 71 -3 229 -95 366 -214 36
-31 80 -67 98 -81 37 -26 62 -66 62 -99 0 -12 8 -52 19 -88 10 -37 23 -98 29
-135 6 -38 13 -71 16 -74 8 -9 69 23 93 49 26 27 100 192 118 263 21 78 89
186 147 234 17 13 57 35 90 49 56 22 66 23 132 13 39 -5 98 -19 131 -30 33
-11 61 -18 64 -16 2 2 -6 60 -17 127 -66 385 -44 647 63 762 18 19 33 23 92
25 67 2 73 0 133 -40 85 -58 180 -147 197 -186 7 -18 16 -72 19 -120 5 -79 3
-99 -25 -193 -23 -81 -37 -111 -59 -131 -16 -15 -36 -29 -43 -31 -10 -3 -5
-36 23 -149 41 -165 89 -396 114 -549 9 -58 20 -110 23 -117 5 -9 21 -5 60 15
74 38 109 101 158 292 5 19 10 60 12 92 2 49 0 57 -17 63 -33 10 -72 45 -72
65 0 18 -8 29 -49 62 -57 47 18 164 91 143 13 -4 34 -20 48 -36 14 -16 36 -30
50 -30 21 -1 92 23 150 51 8 4 24 33 35 66 l21 59 41 -1 c32 0 64 -14 137 -58
52 -32 100 -63 105 -70 6 -7 31 -26 56 -41 24 -16 48 -40 53 -54 6 -14 10 -84
11 -156 2 -200 33 -491 52 -480 4 3 10 1 14 -5 12 -20 45 -10 57 18 7 15 19
35 27 45 9 10 21 37 27 60 9 35 8 46 -6 67 -9 14 -29 61 -44 105 -23 65 -27
96 -27 175 1 137 29 213 111 303 68 74 153 100 259 78 99 -21 271 -84 271
-100 0 -4 17 -17 38 -29 21 -12 59 -43 84 -70 39 -41 46 -55 51 -102 7 -67 -4
-140 -26 -173 -9 -14 -35 -32 -59 -40 -81 -28 -198 -57 -228 -57 -36 0 -46
-26 -36 -98 8 -55 54 -199 66 -207 4 -3 28 6 52 20 23 14 53 25 65 25 27 0
134 85 172 136 15 22 35 45 44 52 14 12 13 19 -10 70 -21 48 -24 68 -21 127 5
80 23 120 77 174 21 21 43 45 47 53 5 7 43 42 83 77 l75 63 66 -4 c37 -3 80
-12 96 -21 16 -8 61 -27 99 -43 39 -15 73 -33 77 -38 4 -6 8 -8 8 -3 0 4 13 1
30 -8 16 -8 31 -15 35 -15 10 0 5 45 -10 85 -8 22 -14 46 -15 54 0 22 79 8
127 -22 23 -15 67 -35 97 -46 31 -11 68 -29 84 -40 15 -12 56 -43 92 -70 80
-59 106 -96 115 -164 4 -28 15 -72 26 -95 10 -24 33 -101 50 -170 17 -70 39
-146 49 -170 21 -46 34 -47 72 -5 18 21 78 147 78 166 0 7 -18 36 -40 66 -44
58 -70 132 -70 198 0 47 18 132 30 146 4 5 27 -27 51 -70 43 -77 44 -78 49
-45 3 18 10 33 15 34 18 2 45 -66 46 -117 1 -45 2 -46 8 -16 8 48 34 62 62 35
16 -17 23 -42 31 -108 6 -48 8 -89 5 -92 -7 -7 -46 13 -76 40 l-24 21 8 -25
c4 -14 12 -46 18 -72 11 -47 34 -68 76 -68 17 0 17 -5 6 -72 -18 -114 -85
-232 -169 -299 -47 -38 -55 -41 -99 -36 -71 6 -181 66 -279 151 -48 42 -92 76
-97 76 -5 0 -24 -19 -42 -42 -58 -75 -102 -122 -141 -152 -37 -27 -44 -28
-111 -24 -129 9 -276 90 -429 237 -53 50 -102 91 -110 91 -17 0 -44 -29 -80
-85 -14 -22 -38 -47 -54 -55 -16 -8 -38 -22 -50 -32 -11 -10 -47 -35 -80 -55
-52 -33 -66 -37 -119 -37 -47 1 -74 8 -124 34 -74 37 -155 94 -223 157 -26 23
-52 43 -57 43 -6 0 -25 -21 -42 -47 -54 -79 -131 -163 -149 -163 -10 0 -42 10
-71 22 -170 70 -336 215 -431 377 -56 94 -68 132 -86 281 l-7 55 -28 -27 c-25
-25 -27 -34 -27 -100 0 -175 -53 -335 -149 -447 -121 -140 -134 -151 -187
-151 -69 0 -117 16 -168 54 -78 61 -82 61 -119 24 -19 -18 -50 -44 -71 -58
-21 -14 -51 -36 -67 -49 -27 -22 -35 -23 -107 -17 -103 9 -131 19 -237 82 -94
56 -148 108 -231 223 -25 35 -49 59 -54 55 -4 -5 -13 -26 -20 -47 -12 -39
-116 -147 -198 -208 -39 -28 -48 -31 -100 -27 -92 6 -166 65 -307 244 -64 80
-65 83 -79 175 -8 52 -17 147 -20 211 -8 149 -15 168 -60 168 -28 0 -41 -8
-75 -46 -57 -65 -101 -157 -101 -211 0 -48 14 -81 66 -152 18 -26 40 -72 48
-103 8 -30 24 -74 35 -97 25 -48 31 -122 12 -145 -21 -25 -72 -19 -127 15 -62
39 -139 112 -171 164 -14 22 -35 51 -48 65 -24 27 -49 138 -61 273 -4 54 -10
77 -20 77 -32 0 -102 -56 -137 -109 -52 -80 -65 -117 -77 -217 -13 -109 -24
-148 -53 -199 -20 -35 -29 -41 -74 -50 -28 -5 -55 -14 -60 -18 -27 -28 -77
-37 -142 -26 -74 11 -121 36 -199 103 -30 25 -60 46 -68 46 -7 0 -25 -17 -38
-38 -13 -21 -39 -50 -57 -66 -142 -116 -160 -124 -247 -111 -77 11 -123 38
-201 119 -40 42 -75 76 -77 76 -2 0 -11 -14 -20 -32 -31 -59 -114 -137 -188
-174 -39 -20 -84 -47 -99 -60 -42 -35 -73 -39 -146 -20 -94 25 -157 61 -227
127 -33 33 -65 59 -71 59 -6 0 -13 -10 -17 -23 -3 -13 -20 -40 -38 -60 -48
-54 -126 -76 -316 -88 -146 -9 -155 -9 -182 11 -68 48 -169 195 -178 259 -11
71 -5 506 8 601 6 47 13 114 16 150 2 36 9 89 14 119 14 78 13 101 -6 101 -9
0 -28 -14 -43 -31 -14 -17 -62 -70 -106 -118 -45 -47 -87 -102 -95 -121 -7
-19 -28 -66 -45 -105 -79 -172 -131 -390 -170 -705 -9 -66 -22 -148 -30 -183
-8 -34 -15 -76 -15 -93 0 -44 -19 -55 -89 -55 -47 -1 -71 5 -109 26 -55 30
-152 111 -152 127 0 6 -16 29 -36 51 l-37 40 7 111 c4 61 12 133 17 161 5 27
12 77 15 110 2 33 10 87 15 120 6 33 12 74 14 90 2 17 9 55 15 85 6 30 12 64
15 75 2 11 4 21 5 23 3 3 5 11 14 59 4 24 12 45 17 49 5 3 9 16 9 29 0 13 6
44 14 67 12 39 32 125 58 253 5 28 16 73 24 101 19 69 19 68 -23 44 -39 -22
-71 -60 -136 -164 -21 -34 -46 -70 -56 -81 -10 -11 -47 -81 -83 -155 -37 -74
-87 -162 -112 -195 -25 -33 -74 -103 -109 -155 -35 -52 -76 -106 -92 -120 -31
-28 -96 -153 -116 -220 -20 -69 -142 -338 -181 -400 -45 -70 -51 -75 -183
-147 -96 -53 -119 -62 -182 -67 -43 -4 -88 -3 -113 4 -52 14 -133 75 -167 126
-15 21 -32 43 -40 47 -7 4 -13 13 -13 18 0 6 -9 23 -20 37 -18 22 -20 35 -15
96 12 137 15 157 24 174 18 34 107 99 186 137 135 64 143 67 182 76 106 23
105 22 118 64 7 22 25 69 42 105 43 93 44 96 113 300 34 102 71 201 81 220 10
19 37 84 59 145 22 60 49 123 58 140 24 40 46 120 39 140 -9 21 -77 21 -77 -1
0 -38 -34 -127 -70 -183 -42 -65 -43 -80 -1 -30 29 34 61 32 61 -3 0 -24 -52
-78 -75 -78 -9 0 -35 -10 -58 -22 -43 -22 -130 -40 -204 -42 -50 -1 -83 25
-83 65 0 23 8 32 38 48 l39 20 -16 49 c-9 28 -20 47 -25 44 -5 -3 -7 1 -4 9 3
8 13 38 22 67 27 80 125 163 259 217 l50 20 27 85 c39 128 74 184 191 305 58
61 115 124 128 142 50 72 223 162 366 188 99 19 115 18 115 -2z m7835 -53 c13
-6 -9 -9 -65 -9 -56 0 -78 3 -65 9 11 5 40 9 65 9 25 0 54 -4 65 -9z m-193
-165 c72 -104 158 -260 158 -287 0 -30 -17 -48 -45 -48 -16 0 -42 36 -119 166
l-98 165 17 40 c10 22 23 38 29 36 6 -2 32 -34 58 -72z m-9066 -80 c31 -21 37
-69 15 -119 -11 -24 -66 -89 -133 -157 -138 -140 -171 -196 -176 -305 -9 -173
69 -334 206 -421 29 -19 55 -33 57 -31 2 2 -9 46 -25 98 -37 117 -60 235 -60
309 0 239 197 430 445 431 77 0 92 -9 67 -38 -16 -18 -30 -22 -74 -22 -160 0
-288 -96 -339 -254 -22 -67 -22 -74 -11 -235 14 -193 15 -390 3 -410 -27 -42
-223 94 -305 212 -94 137 -125 289 -90 437 43 182 230 454 347 505 41 18 48
18 73 0z m10784 -24 c24 -16 67 -57 96 -91 l52 -62 -31 -32 c-51 -49 -82 -62
-112 -46 -28 15 -104 100 -125 139 -13 26 -8 84 11 107 18 22 62 16 109 -15z
m-2893 -141 c7 -14 13 -55 13 -92 0 -51 4 -72 18 -85 17 -18 18 -63 1 -63 -5
0 -9 -9 -9 -20 0 -11 -4 -20 -10 -20 -5 0 -10 -10 -10 -22 0 -20 -2 -20 -34
11 -78 76 -119 248 -72 300 28 31 86 26 103 -9z m2658 -76 c27 -13 61 -33 75
-44 l25 -20 -38 0 c-35 0 -120 32 -143 55 -5 5 -13 18 -17 29 -6 16 -4 17 20
11 15 -3 50 -17 78 -31z m-461 -327 c10 -94 34 -144 87 -190 33 -28 59 -63 79
-106 17 -35 28 -66 26 -69 -8 -7 -95 47 -137 85 -22 20 -55 68 -76 111 -34 68
-38 83 -41 176 l-4 101 30 -28 c23 -22 31 -40 36 -80z m656 -147 c36 -19 41
-44 25 -117 -7 -37 -23 -95 -35 -127 -11 -33 -20 -61 -20 -62 0 -2 21 6 46 17
l47 19 -7 -72 c-4 -40 -13 -79 -21 -87 -7 -7 -37 -22 -67 -32 -62 -21 -66 -18
-111 61 l-26 45 29 65 c16 36 37 88 49 116 l20 51 -55 12 c-43 10 -54 16 -52
29 3 12 13 16 33 15 25 -2 27 0 13 8 -20 11 -24 29 -7 29 6 0 25 -11 44 -26
36 -27 37 -27 54 29 14 41 14 41 41 27z m-1042 -85 c177 -133 380 -221 608
-265 l61 -12 40 -67 40 -66 -57 -3 c-64 -3 -229 27 -324 60 -159 55 -318 151
-439 267 l-78 74 33 33 c18 18 35 33 38 33 3 1 38 -24 78 -54z m-5405 -244
c63 -47 118 -90 192 -151 37 -30 94 -77 127 -104 33 -27 66 -63 74 -82 17 -41
18 -96 2 -112 -16 -16 -79 -15 -152 2 -49 12 -67 23 -118 72 -33 33 -79 84
-102 114 -45 59 -116 173 -116 185 0 5 -10 22 -23 39 -27 36 -38 62 -30 70 3
3 27 4 54 2 36 -3 61 -12 92 -35z m-4419 -335 c44 -18 50 -29 35 -70 l-12 -34
-123 1 c-117 2 -123 1 -148 -22 -73 -68 25 -183 168 -200 l54 -6 -21 -44 -20
-43 -50 6 c-191 26 -279 219 -159 348 63 67 196 98 276 64z m6649 -1024 c60
-26 160 -121 187 -176 37 -78 20 -268 -35 -376 -14 -28 -51 -76 -81 -108 -55
-57 -56 -57 -50 -107 3 -27 6 -62 6 -77 0 -40 19 -36 97 21 82 58 163 83 243
75 91 -10 239 -88 337 -179 100 -93 148 -169 169 -267 27 -123 3 -308 -38
-308 -8 0 -29 -13 -48 -29 -30 -25 -35 -34 -34 -71 1 -37 8 -49 64 -105 62
-62 170 -135 201 -135 22 0 186 149 194 176 4 12 -5 73 -19 136 -42 189 -30
310 47 467 36 73 58 102 149 192 124 123 162 142 274 143 54 1 83 -5 125 -23
187 -84 177 -74 209 -196 36 -141 4 -227 -122 -334 -115 -98 -184 -141 -224
-139 -23 1 -42 -6 -54 -18 -31 -30 -80 -181 -80 -244 0 -135 77 -195 276 -213
106 -10 114 -9 168 13 65 26 69 31 111 160 100 300 117 368 118 475 1 152 -12
234 -44 288 -16 26 -29 54 -29 61 0 35 76 24 149 -22 25 -16 93 -58 151 -95
99 -62 154 -107 284 -236 54 -53 55 -54 80 -38 13 9 46 47 72 84 26 38 55 77
65 88 31 35 106 178 133 255 15 41 32 81 39 89 7 7 17 30 22 49 11 40 34 58
60 49 18 -8 19 3 -9 -186 -18 -117 -22 -133 -64 -246 -61 -165 -115 -281 -149
-323 -37 -45 -37 -62 -3 -112 19 -28 94 -168 102 -190 3 -11 25 4 74 49 140
128 322 227 509 277 105 28 269 47 326 38 47 -8 48 -6 13 91 -67 188 8 372
183 452 56 26 194 45 193 27 -1 -5 -9 -24 -18 -43 -13 -26 -28 -38 -62 -50
-62 -22 -142 -103 -163 -165 -10 -30 -17 -81 -17 -128 l0 -79 -80 -119 -80
-119 -47 -6 c-292 -41 -581 -165 -756 -326 l-48 -44 12 -54 c8 -40 9 -68 0
-105 -6 -28 -13 -73 -17 -100 -4 -36 -13 -56 -34 -75 -52 -49 -60 -53 -89 -46
-19 4 -32 1 -41 -10 -8 -10 -17 -12 -24 -6 -6 6 -26 9 -44 9 -18 -1 -35 2 -38
5 -4 3 11 37 32 74 35 64 52 88 147 214 21 28 37 52 35 54 -2 2 -22 10 -45 18
l-41 14 -21 -37 c-11 -21 -28 -44 -37 -51 -28 -23 -119 -152 -134 -189 -8 -19
-23 -48 -34 -64 -20 -27 -24 -28 -78 -23 -31 3 -83 17 -114 31 -31 15 -65 24
-75 21 -9 -3 -20 -1 -24 4 -3 6 -23 15 -44 21 -29 8 -41 17 -45 36 -8 31 -114
138 -164 164 -67 36 -119 21 -222 -65 -49 -40 -139 -85 -173 -85 -6 0 -41 12
-78 26 l-66 26 -45 -21 c-46 -20 -94 -62 -155 -134 -24 -27 -33 -48 -33 -73 0
-28 -9 -43 -45 -79 -73 -73 -105 -54 -92 56 13 108 83 211 173 255 l56 27 -46
43 c-47 45 -107 130 -132 190 -8 19 -18 34 -23 34 -4 0 -45 -40 -90 -89 -59
-65 -97 -97 -136 -115 -57 -28 -132 -34 -180 -16 -26 10 -375 356 -375 372 0
5 -39 49 -86 98 -102 105 -156 186 -157 236 -1 37 13 54 49 54 35 0 138 39
165 63 32 27 69 113 69 162 0 33 -3 37 -47 56 -50 22 -91 21 -176 -2 -62 -17
-176 -131 -227 -229 -40 -78 -40 -79 -39 -187 0 -59 6 -169 12 -244 7 -74 12
-184 12 -243 l0 -108 -31 -27 c-17 -16 -48 -31 -68 -35 -30 -6 -45 -2 -91 26
-30 18 -57 40 -60 48 -3 8 -33 44 -66 79 -34 36 -65 75 -70 88 -13 34 -32 29
-98 -30 -79 -70 -195 -121 -255 -112 -36 6 -55 21 -161 131 -66 69 -128 124
-137 124 -9 0 -33 -21 -53 -47 -87 -114 -203 -220 -277 -253 -40 -17 -67 -20
-192 -21 -80 0 -163 5 -186 11 -46 12 -107 71 -147 140 -47 83 -44 81 -124 43
-95 -45 -161 -61 -283 -69 -125 -8 -169 3 -218 53 -74 77 -117 144 -123 192
-3 25 -10 80 -15 121 -14 106 -13 157 11 358 11 97 21 233 22 302 2 111 0 129
-20 166 -31 59 -46 67 -111 65 -83 -2 -271 -68 -302 -106 -8 -9 -30 -25 -51
-35 -28 -15 -38 -27 -43 -54 -4 -19 -2 -43 3 -53 18 -34 49 -148 61 -228 21
-136 14 -677 -10 -795 -5 -25 -12 -57 -15 -72 -4 -19 -12 -28 -24 -28 -18 0
-121 100 -121 118 0 5 -12 22 -28 38 -38 41 -94 117 -144 199 l-43 70 0 110
c0 61 2 225 4 365 4 218 2 264 -12 315 -22 79 -42 98 -101 97 -83 -2 -232
-102 -307 -204 -24 -35 -26 -42 -17 -76 20 -73 0 -347 -38 -523 -8 -36 -19
-104 -24 -150 -6 -46 -19 -113 -30 -149 -11 -36 -20 -79 -20 -96 0 -17 -7 -54
-16 -83 -11 -39 -23 -57 -47 -71 -38 -24 -94 -26 -124 -5 -23 16 -123 160
-123 176 0 5 -21 45 -46 89 l-46 79 10 78 c6 43 36 182 66 309 56 231 86 397
81 444 -1 14 -3 33 -4 42 -2 23 -35 32 -75 18 -35 -11 -70 -49 -101 -110 -10
-19 -33 -53 -52 -75 -19 -22 -63 -86 -97 -142 -33 -56 -78 -126 -99 -156 -21
-30 -49 -86 -61 -123 -27 -79 -52 -94 -82 -49 -31 48 -7 113 107 282 37 54 79
123 95 153 15 30 40 73 54 95 15 22 37 60 50 85 12 25 36 61 51 81 16 20 29
44 29 52 0 19 93 103 137 125 30 14 38 14 105 -2 113 -27 185 -74 238 -155
l16 -23 44 21 c25 12 74 49 109 82 53 50 81 67 150 94 81 30 89 31 137 20 55
-13 205 -98 243 -139 14 -14 32 -26 41 -26 19 0 99 49 119 74 8 10 40 31 70
47 31 17 79 46 106 65 49 34 129 64 169 64 28 0 133 -51 171 -82 17 -13 52
-39 78 -57 90 -61 189 -175 241 -278 41 -81 66 -216 66 -350 0 -100 -26 -377
-40 -423 -25 -87 0 -118 87 -106 105 16 172 71 151 126 -5 14 -13 43 -18 65
-4 22 -17 76 -29 120 -29 111 -27 178 8 283 42 127 74 176 176 278 108 106
173 144 249 144 91 -1 152 -22 214 -72 67 -54 124 -83 146 -75 20 8 22 103 4
154 -6 18 -9 35 -6 38 9 9 80 -23 108 -49 14 -13 57 -43 95 -67 97 -59 190
-135 205 -167 30 -64 32 -79 60 -377 13 -144 30 -216 67 -287 25 -46 33 -53
62 -56 55 -6 74 4 146 74 83 81 83 82 64 342 -28 379 6 915 70 1112 27 83 45
112 92 154 41 38 43 38 108 34 37 -3 88 -14 114 -26z m-6611 -797 c70 -9 160
-59 212 -116 58 -65 86 -139 86 -229 0 -94 -4 -102 -40 -84 -15 8 -33 21 -40
29 -7 8 -20 15 -30 15 -13 0 -19 12 -23 52 -19 155 -140 259 -287 245 -106 -9
-183 -67 -184 -138 -1 -34 4 -45 27 -63 26 -19 39 -21 156 -18 147 3 164 -4
137 -56 -49 -95 -260 -72 -343 36 -76 101 -40 243 79 303 40 21 135 38 178 33
14 -2 46 -6 72 -9z m605 -610 c32 -8 81 -24 108 -35 l50 -19 -38 -1 c-21 0
-73 12 -115 26 -120 40 -124 59 -5 29z m-517 -81 c0 -73 -29 -288 -46 -333 -3
-8 -9 -62 -15 -119 -11 -120 0 -207 34 -256 33 -48 70 -86 82 -86 6 0 22 -12
36 -26 l24 -27 -25 13 c-43 23 -129 112 -159 164 -70 123 -64 300 19 540 11
33 18 61 15 64 -10 10 -96 -51 -143 -102 -84 -93 -122 -194 -122 -332 0 -118
31 -174 180 -329 65 -66 122 -130 129 -142 16 -32 14 -99 -5 -117 -35 -36
-101 -8 -184 78 -199 206 -294 456 -246 646 45 179 168 333 326 410 46 22 88
40 92 40 4 0 8 -39 8 -86z m10704 -146 c51 -23 99 -174 100 -318 0 -106 -14
-145 -57 -154 -44 -9 -51 3 -37 69 12 60 8 135 -13 206 l-12 39 -82 -75 c-45
-41 -84 -75 -87 -75 -3 0 -6 11 -6 24 0 16 14 37 43 61 42 37 36 38 -16 2 -16
-10 -30 -18 -32 -16 -2 2 0 20 4 39 8 41 49 66 123 76 l46 6 -19 55 c-25 73
-14 88 45 61z m-354 -4 c0 -4 -20 -32 -45 -62 -25 -30 -45 -58 -45 -63 0 -5
-24 -24 -54 -43 -68 -43 -92 -84 -108 -177 -8 -54 -18 -81 -37 -102 l-26 -29
-5 39 c-15 114 34 255 117 339 60 59 203 128 203 98z m-9965 -58 c39 -18 107
-60 151 -94 73 -54 84 -67 103 -117 25 -67 28 -187 7 -258 -8 -26 -11 -47 -6
-47 4 0 10 -8 13 -17 2 -10 57 -80 121 -155 64 -76 116 -142 116 -147 0 -17
-42 -34 -79 -33 -42 2 -81 37 -183 165 -53 66 -75 86 -88 82 -13 -4 -25 4 -41
27 -13 18 -74 85 -135 149 -99 102 -170 199 -146 199 19 0 168 -170 241 -276
19 -27 36 -43 38 -36 6 15 -70 111 -203 259 -80 89 -103 120 -106 148 -3 23 0
35 8 35 30 0 144 -92 252 -205 106 -111 120 -122 126 -102 11 42 6 155 -9 198
-28 78 -66 105 -215 154 -87 28 -120 48 -120 71 0 17 29 33 60 34 14 0 57 -15
95 -34z m806 -293 c13 -16 12 -17 -3 -4 -10 7 -18 15 -18 17 0 8 8 3 21 -13z
m764 -29 c61 -15 145 -58 145 -73 0 -10 -48 -20 -132 -28 -32 -2 -58 -9 -58
-14 0 -5 -9 -9 -20 -9 -11 0 -20 5 -20 10 0 6 -7 10 -15 10 -26 0 -65 47 -65
78 0 16 3 32 7 35 12 12 97 7 158 -9z m652 -190 c-3 -3 -12 -4 -19 -1 -8 3 -5
6 6 6 11 1 17 -2 13 -5z m238 -2 c35 -7 41 -12 57 -52 23 -60 23 -138 0 -168
-22 -28 -80 -39 -106 -19 -15 11 -20 32 -26 101 -8 98 -22 122 -81 136 -27 6
-18 8 41 8 41 1 93 -2 115 -6z m-298 -8 c-3 -3 -12 -4 -19 -1 -8 3 -5 6 6 6
11 1 17 -2 13 -5z m-89 -36 c-72 -39 -184 -138 -168 -148 14 -9 5 -43 -19 -72
-46 -58 -87 -98 -98 -98 -7 0 -18 -10 -24 -22 -40 -74 -143 -165 -252 -219
l-58 -30 32 -47 c18 -26 66 -90 107 -142 41 -52 80 -101 85 -107 7 -10 4 -13
-10 -13 -27 0 -145 104 -227 199 -57 66 -75 81 -98 81 -15 0 -28 3 -28 7 0 17
64 103 77 103 24 0 126 65 171 110 54 52 91 111 118 190 21 61 26 67 80 98 32
18 63 31 70 28 7 -3 18 2 25 10 18 22 56 40 156 74 113 38 133 38 61 -2z
m7657 -238 c4 -6 -11 -54 -33 -108 -51 -125 -86 -238 -103 -331 -11 -63 -18
-80 -49 -113 -22 -22 -46 -38 -60 -38 -21 0 -22 3 -16 53 21 162 145 487 204
535 19 15 48 16 57 2z m-188 -157 c-28 -53 -68 -147 -88 -208 -29 -85 -38
-102 -38 -75 -1 64 28 171 63 233 30 53 101 147 111 147 2 0 -20 -44 -48 -97z
m-9169 -344 c16 -82 -1 -189 -42 -274 -47 -98 -200 -264 -353 -382 -33 -26
-51 -33 -85 -33 -91 1 -184 69 -238 175 -72 141 -39 256 62 214 15 -6 28 -12
29 -13 0 0 4 -36 8 -79 6 -58 14 -84 29 -99 28 -28 94 -38 177 -27 143 20 259
104 321 232 53 110 63 215 39 392 l-6 40 25 -45 c13 -25 29 -71 34 -101z
m7207 70 c4 -5 17 -14 28 -20 12 -5 42 -25 67 -43 25 -19 49 -35 53 -35 12 -1
37 -28 37 -39 0 -5 7 -15 15 -22 23 -19 18 -37 -24 -80 -59 -61 -65 -56 -75
61 -11 130 -85 177 -160 102 -39 -39 -56 -86 -56 -158 0 -53 6 -75 33 -128
l34 -64 -27 -52 -26 -53 -28 36 c-34 45 -63 109 -70 159 -19 124 -3 141 -163
-177 -127 -251 -153 -297 -207 -355 -34 -36 -68 -79 -76 -96 -57 -119 -216
-295 -265 -295 -3 0 38 56 89 125 121 160 176 249 353 573 165 302 195 351
274 448 59 73 93 101 138 114 37 12 49 11 56 -1z m-6389 -74 c10 -40 -1 -52
-55 -60 -64 -9 -158 -53 -208 -99 -123 -111 -142 -338 -40 -491 54 -80 154
-155 210 -155 16 0 16 -2 2 -29 -22 -43 -30 -45 -88 -18 -138 63 -267 274
-267 437 0 220 198 430 412 439 22 1 29 -5 34 -24z m299 -75 c55 -27 114 -60
130 -74 l30 -25 -61 -1 c-69 0 -109 21 -204 110 -52 49 -53 51 -25 45 17 -3
75 -28 130 -55z m-865 -197 c53 -258 80 -365 110 -436 33 -79 98 -182 161
-257 l38 -45 -26 -27 -27 -28 -29 27 c-45 42 -145 180 -177 243 -40 79 -75
191 -98 311 -35 178 -36 204 -11 265 13 30 26 54 30 54 3 0 16 -48 29 -107z
m7770 83 c0 -2 -42 -32 -92 -67 -51 -34 -149 -102 -218 -150 -181 -126 -310
-186 -310 -144 0 38 63 82 156 110 160 48 175 55 260 137 76 73 146 117 187
118 9 0 17 -2 17 -4z m-3947 -35 c82 -54 127 -197 95 -304 -27 -90 -164 -184
-303 -207 -104 -18 -105 -19 -42 -47 58 -27 68 -41 42 -63 -8 -7 -15 -18 -15
-24 0 -6 -7 -19 -15 -30 -13 -18 -15 -17 -77 2 -35 11 -76 23 -93 27 -51 11
-217 6 -273 -9 -53 -14 -117 -11 -128 5 -3 5 -22 9 -42 9 l-37 0 35 22 c56 34
142 75 185 88 22 6 99 15 170 20 217 14 360 76 434 187 63 95 60 153 -14 234
-19 22 -35 44 -35 49 0 18 48 60 67 60 10 0 31 -8 46 -19z m1102 -5 c34 -27
31 -39 -30 -114 -27 -33 -35 -53 -35 -83 0 -49 36 -121 83 -170 l36 -37 -39
-27 c-46 -32 -65 -28 -122 23 -61 55 -82 104 -82 187 0 87 29 160 85 210 46
41 64 43 104 11z m4725 -86 c39 -39 18 -147 -49 -243 -18 -26 -36 -47 -42 -47
-5 0 -30 19 -54 41 l-45 42 29 18 c33 20 51 68 51 136 0 24 6 48 16 57 22 22
70 20 94 -4z m-7821 -116 c3 -3 -18 -28 -47 -56 -29 -28 -46 -48 -38 -45 12 5
16 0 16 -16 0 -12 -4 -28 -9 -36 -7 -10 3 -22 38 -46 25 -17 59 -51 76 -74 53
-76 32 -187 -50 -259 -47 -42 -62 -40 -76 7 -10 34 -9 45 10 83 48 101 7 190
-120 258 -66 35 -73 53 -39 107 35 58 118 96 189 88 25 -3 47 -8 50 -11z
m-2048 -121 c-38 -111 -61 -261 -61 -392 0 -242 78 -392 217 -421 107 -23 166
5 211 98 28 58 62 87 47 41 -4 -13 -8 -67 -10 -119 l-2 -95 -56 -29 c-108 -55
-242 -46 -333 22 -64 49 -120 156 -134 257 -17 124 -8 344 17 430 3 12 -24 -9
-68 -50 -118 -112 -274 -209 -369 -230 l-33 -7 41 58 c23 33 75 88 116 124
289 251 350 307 393 361 26 33 49 56 51 51 2 -6 -10 -50 -27 -99z m8148 -69
c23 -26 41 -52 41 -59 0 -15 -57 -95 -68 -95 -16 0 -51 31 -71 64 -25 40 -27
93 -4 118 27 30 58 22 102 -28z m-317 -37 c65 -32 142 -97 163 -138 28 -53 18
-102 -25 -124 -36 -19 -64 -4 -152 81 -94 91 -147 109 -253 84 -35 -8 -43 -6
-73 17 l-33 25 22 24 c47 50 96 65 199 62 80 -3 105 -8 152 -31z m-8914 -41
c15 -8 68 -46 117 -86 50 -39 118 -85 152 -102 l63 -31 -37 -51 c-60 -83 -55
-81 -110 -66 -160 44 -335 182 -335 266 0 14 12 38 28 55 31 33 77 39 122 15z
m11322 -1 c0 -32 -47 -65 -90 -65 -51 0 -46 11 23 50 60 34 67 36 67 15z
m-5221 -54 c11 -7 4 -19 -36 -55 -28 -26 -64 -56 -79 -68 -16 -12 -31 -26 -34
-30 -19 -25 -230 -71 -230 -50 0 19 113 127 163 157 87 50 178 70 216 46z
m1178 -358 c30 -39 52 -76 49 -81 -3 -6 -22 -12 -41 -14 -29 -3 -38 0 -52 21
-9 15 -33 46 -53 71 -25 30 -39 59 -43 85 -2 22 -8 51 -12 65 -6 21 1 17 44
-25 29 -27 77 -82 108 -122z m-1032 26 c-40 -113 4 -263 91 -304 45 -21 71
-19 99 10 31 30 32 73 5 191 -25 104 -21 124 24 124 77 0 121 -110 91 -224
-28 -106 -71 -154 -157 -177 -94 -25 -202 37 -248 142 -12 28 -24 81 -27 119
l-6 68 64 46 c34 25 66 46 71 46 4 0 1 -19 -7 -41z m-6271 10 c35 -16 58 -70
50 -116 -3 -21 -35 -172 -70 -335 -35 -163 -75 -356 -88 -430 l-24 -133 1 487
2 486 24 26 c27 28 64 33 105 15z m2911 -76 c-20 -138 -110 -241 -252 -289
-67 -23 -66 -25 7 -39 107 -20 240 -78 240 -105 0 -22 -55 -70 -80 -70 -11 0
-47 18 -81 40 -85 55 -193 94 -386 141 -90 22 -176 45 -191 50 -27 11 -27 11
29 39 53 27 60 28 120 20 147 -22 307 -2 406 49 69 35 133 121 133 180 0 18
14 27 49 30 10 1 12 -9 6 -46z m5088 26 c47 -13 71 -47 62 -88 -10 -48 -24
-53 -103 -40 -68 11 -70 12 -76 45 -4 18 -4 44 0 58 6 23 11 26 69 34 6 1 27
-3 48 -9z m3046 -25 c21 -27 101 -226 147 -367 l29 -88 -20 -36 c-11 -20 -24
-38 -30 -39 -12 -4 -41 38 -137 190 l-68 109 0 99 c0 142 31 193 79 132z
m-10224 -138 c59 -60 42 -112 -68 -203 -88 -73 -225 -173 -236 -173 -15 0 -62
100 -54 114 14 24 216 247 243 267 36 26 86 24 115 -5z m8913 -46 l2 -45 -19
25 c-11 13 -22 35 -24 48 -4 19 -1 23 17 20 17 -2 21 -11 24 -48z m-6148 -39
c0 -39 -4 -73 -10 -76 -5 -3 -11 -18 -11 -33 -1 -15 -5 -2 -10 28 -4 30 -17
77 -28 103 l-20 47 39 0 40 0 0 -69z m2274 -28 c19 -36 33 -70 29 -75 -7 -12
-89 -1 -124 18 -26 13 -39 33 -39 59 0 15 67 65 87 65 6 0 28 -30 47 -67z
m-5670 -181 c6 -18 -12 -55 -85 -175 -51 -84 -112 -187 -137 -229 -24 -43 -46
-78 -48 -78 -5 0 185 499 245 640 3 8 9 -19 12 -60 3 -42 9 -86 13 -98z m7552
152 c19 -5 22 -15 27 -87 5 -80 31 -170 76 -267 11 -25 21 -50 21 -56 0 -18
-249 43 -299 74 -25 15 -46 33 -49 40 -5 15 36 16 72 2 22 -8 18 1 -34 76 -63
92 -64 96 -22 153 l25 34 31 -34 c17 -19 44 -49 59 -68 15 -18 30 -31 33 -28
3 3 -2 29 -10 58 -9 29 -16 65 -16 81 0 25 3 28 33 28 17 0 42 -3 53 -6z
m-3531 -29 c110 -29 208 -117 231 -209 7 -28 6 -29 -22 -22 -68 17 -309 181
-336 230 -8 14 -3 16 29 16 22 0 66 -7 98 -15z m-2084 -47 c53 -57 99 -152
106 -219 l5 -54 -48 -18 c-27 -11 -61 -23 -76 -27 l-28 -9 0 67 c-1 83 -14
141 -46 206 l-26 51 29 22 c15 13 32 23 36 23 4 0 26 -19 48 -42z m4225 -24
c44 -14 112 -43 152 -65 l73 -39 74 15 c40 9 99 24 130 35 32 11 61 17 66 15
13 -9 27 -70 22 -98 -7 -34 -18 -43 -88 -67 -96 -33 -149 -28 -317 32 -92 32
-110 48 -55 48 l32 0 -30 20 c-41 28 -141 58 -217 65 -72 7 -154 33 -141 45
12 12 49 17 139 19 63 1 99 -5 160 -25z m-5174 -65 c34 -19 50 -72 37 -127
-21 -84 -72 -115 -189 -114 -30 0 -90 -8 -132 -19 l-78 -19 -63 29 c-36 15
-67 34 -71 40 -10 15 405 221 445 221 17 0 39 -5 51 -11z m9839 -131 c8 -16 5
-18 -26 -18 -54 0 -95 44 -95 101 l0 43 56 -54 c30 -30 60 -63 65 -72z m-2606
76 c30 -20 55 -41 55 -47 0 -6 -11 -29 -24 -51 -13 -23 -29 -57 -35 -78 -13
-39 -46 -58 -123 -72 -34 -6 -38 -5 -44 19 -10 41 3 123 27 169 22 43 67 96
81 96 5 0 33 -16 63 -36z m1166 -69 c23 -9 58 -27 77 -42 33 -25 34 -27 17
-40 -25 -17 -109 -17 -144 2 -30 15 -81 70 -81 86 0 14 83 11 131 -6z m-5605
-21 c38 -18 101 -70 94 -77 -11 -11 -125 44 -155 74 l-30 31 30 -7 c17 -3 44
-13 61 -21z m-2026 -35 c0 -19 -5 -29 -15 -29 -11 0 -15 11 -15 41 0 36 2 40
15 29 8 -7 15 -25 15 -41z m-1682 -44 c12 -26 -6 -42 -308 -280 -14 -11 44 54
129 143 84 89 157 162 161 162 4 0 12 -11 18 -25z m1382 0 c0 -34 -25 -82 -50
-95 -17 -9 -20 -8 -20 9 0 41 39 111 62 111 4 0 8 -11 8 -25z m-1221 -144 l34
-18 -228 -76 c-126 -42 -230 -75 -232 -73 -3 3 378 186 387 185 3 0 20 -8 39
-18z m8741 -11 c0 -5 17 -10 38 -10 26 0 45 -7 57 -20 10 -11 23 -20 30 -20
14 0 75 -65 75 -80 0 -36 -153 49 -199 111 -12 16 -17 29 -11 29 5 0 10 -4 10
-10z m-5392 -62 c37 -17 87 -51 112 -76 43 -43 44 -43 15 -37 -53 13 -138 55
-182 91 -75 62 -50 72 55 22z m1315 -25 c95 -45 117 -63 78 -63 -11 0 -21 -5
-23 -11 -7 -22 -104 -13 -163 15 -71 35 -91 69 -56 97 29 23 36 22 164 -38z
m1317 12 c0 -34 -10 -36 -116 -33 l-89 3 50 27 c36 19 65 27 103 28 49 0 52
-1 52 -25z m720 -5 c0 -5 23 -10 50 -10 28 0 50 -4 50 -10 0 -5 14 -10 30 -10
17 0 30 -4 30 -10 0 -5 9 -10 20 -10 11 0 20 -4 20 -10 0 -5 7 -10 16 -10 8 0
22 -7 30 -15 13 -13 12 -15 -12 -21 -44 -11 -186 3 -239 23 -28 11 -75 36
-105 56 l-55 37 83 0 c48 0 82 -4 82 -10z m-6355 -80 l80 -40 -385 1 c-374 1
-382 2 -275 15 61 7 189 24 285 38 96 13 184 24 195 25 11 0 56 -17 100 -39z"/>
<path d="M7583 8123 c-23 -15 -41 -28 -40 -30 2 -1 21 4 42 12 22 8 50 14 63
15 20 0 33 20 13 20 -5 0 -15 2 -23 5 -7 3 -32 -7 -55 -22z"/>
<path d="M7685 8028 c-11 -6 -24 -16 -28 -22 -14 -20 3 -110 34 -173 16 -35
32 -76 35 -93 4 -16 10 -30 13 -30 10 0 41 90 41 118 0 13 4 31 10 41 6 12 6
40 0 77 -13 82 -52 112 -105 82z"/>
<path d="M1173 8011 c-17 -11 -34 -29 -38 -40 -4 -13 -15 -21 -28 -21 -21 0
-87 -39 -87 -52 0 -14 17 -8 46 15 l29 22 -28 -37 c-16 -20 -39 -44 -53 -52
-26 -17 -33 -67 -14 -96 8 -12 10 -11 10 8 0 61 79 147 198 214 28 16 52 36
52 44 0 20 -49 17 -87 -5z"/>
<path d="M4459 7983 c-31 -38 -36 -49 -29 -73 l7 -25 13 27 c8 16 27 33 47 40
38 14 41 23 14 38 -27 14 -36 13 -52 -7z"/>
<path d="M2045 7898 c-27 -18 -54 -42 -60 -53 -5 -12 -26 -41 -46 -65 -20 -25
-43 -58 -52 -75 -8 -16 -27 -41 -42 -55 -15 -14 -54 -81 -87 -150 -34 -68 -89
-165 -123 -215 -57 -83 -87 -155 -65 -155 13 0 60 60 99 127 19 32 53 87 76
123 23 36 50 81 60 100 24 48 88 133 156 207 31 34 69 84 84 111 23 43 46 63
114 102 22 12 3 30 -32 30 -19 0 -52 -13 -82 -32z"/>
<path d="M7830 7880 c0 -30 -8 -73 -16 -95 -9 -22 -20 -59 -24 -83 -5 -23 -14
-52 -21 -63 -12 -23 -3 -77 11 -63 14 14 57 136 65 184 10 54 7 123 -5 153 -7
17 -9 10 -10 -33z"/>
<path d="M1235 7890 c-3 -5 -28 -22 -55 -35 -49 -25 -71 -53 -84 -108 l-7 -27
38 15 c47 19 98 74 113 121 12 35 9 56 -5 34z"/>
<path d="M4543 7867 c-13 -28 -1 -164 20 -222 8 -22 18 -67 22 -100 7 -53 8
-57 17 -35 16 39 11 222 -7 305 -18 78 -33 93 -52 52z"/>
<path d="M4615 7830 c23 -141 27 -187 21 -285 -3 -60 -9 -138 -12 -172 -7 -72
9 -87 25 -25 42 156 30 397 -25 491 l-15 26 6 -35z"/>
<path d="M2743 7679 c-21 -6 -47 -28 -76 -67 -25 -31 -55 -66 -67 -77 -13 -11
-40 -47 -62 -79 -33 -52 -38 -66 -38 -120 l0 -60 52 59 c29 32 70 88 91 124
47 82 120 158 170 178 42 17 46 27 18 43 -23 12 -44 12 -88 -1z"/>
<path d="M10508 7384 c-7 -7 2 -44 11 -44 3 0 14 6 23 14 13 10 15 15 6 24
-13 13 -31 16 -40 6z"/>
<path d="M6008 7335 c-42 -39 -115 -157 -124 -201 -6 -33 15 -60 39 -51 8 3
33 41 56 85 30 60 55 91 92 121 29 23 58 41 66 41 27 0 3 18 -33 24 -19 4 -41
9 -47 11 -7 3 -29 -11 -49 -30z"/>
<path d="M8111 7334 c-12 -15 -21 -38 -21 -52 0 -25 1 -24 36 12 21 22 33 43
30 51 -8 22 -22 18 -45 -11z"/>
<path d="M10664 7314 c4 -11 0 -18 -14 -21 -41 -11 -19 -23 31 -17 l50 7 -6
-35 c-7 -34 -6 -35 24 -30 33 5 53 22 26 22 -11 0 -15 5 -12 15 6 15 -25 41
-77 63 -25 11 -28 11 -22 -4z"/>
<path d="M9205 7240 c4 -6 11 -8 16 -5 14 9 11 15 -7 15 -8 0 -12 -5 -9 -10z"/>
<path d="M9978 7243 c7 -3 16 -2 19 1 4 3 -2 6 -13 5 -11 0 -14 -3 -6 -6z"/>
<path d="M10027 7233 c3 -7 6 -13 8 -13 2 0 5 6 8 13 3 8 -1 14 -8 14 -7 0
-11 -6 -8 -14z"/>
<path d="M10630 7240 c0 -5 6 -10 14 -10 8 0 18 5 21 10 3 6 -3 10 -14 10 -12
0 -21 -4 -21 -10z"/>
<path d="M8990 7212 c0 -14 6 -22 16 -22 14 0 15 3 3 18 -7 9 -15 19 -16 21
-2 2 -3 -5 -3 -17z"/>
<path d="M9533 7171 c-29 -33 -53 -64 -53 -70 0 -14 -2 -14 52 4 30 11 49 25
57 41 12 28 15 84 4 84 -5 0 -32 -27 -60 -59z"/>
<path d="M10085 7210 c-16 -18 -16 -20 -2 -20 9 0 21 9 27 20 6 11 7 20 2 20
-5 0 -17 -9 -27 -20z"/>
<path d="M7005 7210 c-3 -5 -1 -10 4 -10 6 0 11 5 11 10 0 6 -2 10 -4 10 -3 0
-8 -4 -11 -10z"/>
<path d="M10530 7214 c0 -3 6 -11 13 -19 11 -11 16 -10 25 6 11 17 9 19 -13
19 -14 0 -25 -3 -25 -6z"/>
<path d="M5569 7175 c-49 -30 -62 -46 -107 -127 -47 -86 -52 -101 -63 -198 -6
-58 -18 -122 -25 -144 -18 -51 -18 -61 3 -45 24 20 53 89 53 127 0 41 32 158
55 203 32 61 125 179 150 191 14 6 25 15 25 20 0 17 -37 6 -91 -27z"/>
<path d="M9896 7203 c-11 -11 -6 -23 9 -23 8 0 15 4 15 9 0 13 -16 22 -24 14z"/>
<path d="M9992 7198 c-14 -14 -16 -28 -2 -28 5 0 14 9 20 20 12 22 1 27 -18 8z"/>
<path d="M10765 7200 c-11 -5 -29 -11 -40 -15 -32 -10 4 -26 45 -19 59 9 63
12 46 29 -16 17 -22 17 -51 5z"/>
<path d="M8460 7190 c0 -5 5 -10 10 -10 6 0 10 5 10 10 0 6 -4 10 -10 10 -5 0
-10 -4 -10 -10z"/>
<path d="M10115 7169 c-11 -17 -2 -18 19 -3 17 12 17 14 4 14 -9 0 -20 -5 -23
-11z"/>
<path d="M10650 7150 c0 -5 9 -10 20 -10 29 0 25 -16 -7 -27 -33 -12 -53 -7
-53 13 0 8 -10 14 -25 14 -14 0 -25 -4 -25 -10 0 -5 9 -10 21 -10 11 0 17 -5
14 -10 -4 -6 -10 -8 -15 -5 -9 6 -7 -41 2 -50 3 -3 11 1 18 10 7 8 23 15 36
15 18 0 22 -4 17 -17 -4 -10 -8 -12 -11 -5 -2 8 -10 7 -28 -4 -29 -19 -32 -44
-5 -44 22 0 40 20 19 21 -7 0 0 5 16 11 18 7 31 7 35 1 3 -6 16 -15 29 -22 12
-6 22 -16 22 -21 0 -12 -66 -32 -87 -26 -34 10 -42 -5 -32 -56 10 -46 11 -46
45 -41 37 6 50 -15 14 -24 -21 -6 -28 -23 -9 -23 7 0 9 -10 5 -24 -7 -27 14
-55 42 -58 21 -1 69 -6 102 -10 14 -2 26 2 27 7 1 6 -11 9 -27 9 -17 -1 -30 2
-30 7 0 5 5 9 11 9 7 0 17 7 24 16 9 13 16 14 33 5 12 -6 32 -9 46 -5 19 4 23
11 22 37 -1 20 -7 33 -16 33 -8 1 -21 2 -27 3 -21 2 -14 21 7 21 11 0 20 7 20
15 0 8 -4 15 -8 15 -5 0 -9 16 -10 36 -1 20 -9 42 -17 48 -9 7 -15 18 -13 26
2 11 -11 16 -52 20 -55 5 -57 23 -2 20 44 -3 52 -1 52 15 0 11 -11 15 -39 15
-25 0 -41 5 -45 15 -3 8 -16 15 -30 15 -19 0 -23 4 -19 20 5 17 0 20 -31 20
-20 0 -36 -4 -36 -10z m100 -69 c0 -12 -20 -25 -27 -18 -7 7 6 27 18 27 5 0 9
-4 9 -9z m100 -109 c3 -3 -14 -2 -38 1 -37 4 -41 3 -31 -10 10 -12 10 -16 -2
-24 -19 -12 3 -12 37 1 32 12 56 -2 37 -21 -6 -6 -9 -17 -6 -25 3 -8 -6 -16
-24 -20 -15 -4 -37 -12 -48 -19 -11 -7 -33 -9 -50 -5 l-30 6 25 14 c14 8 29
13 34 12 4 -2 17 0 28 4 16 5 18 8 7 15 -19 12 -66 11 -74 0 -7 -13 -53 -7
-68 8 -14 14 5 31 36 31 9 0 16 5 15 11 -2 6 4 14 12 18 8 5 28 15 44 23 25
14 32 14 60 0 17 -8 33 -17 36 -20z m50 -152 c0 -5 -9 -10 -20 -10 -11 0 -20
5 -20 10 0 6 9 10 20 10 11 0 20 -4 20 -10z m-132 -28 c3 -21 2 -22 -16 -11
-16 10 -23 10 -36 0 -11 -9 -20 -10 -33 -2 -17 10 -17 10 0 11 10 0 25 7 34
15 21 22 47 15 51 -13z"/>
<path d="M3908 7134 c-23 -13 -23 -13 7 -13 17 1 41 4 55 8 24 7 24 8 -7 12
-17 3 -42 0 -55 -7z"/>
<path d="M10095 7130 c-4 -7 8 -8 37 -4 57 9 61 14 10 14 -22 0 -44 -5 -47
-10z"/>
<path d="M9648 7118 c-9 -22 -79 -58 -113 -58 -45 0 -95 -27 -95 -51 0 -16 4
-19 18 -14 22 10 85 30 139 44 45 12 66 38 61 74 -3 19 -4 19 -10 5z"/>
<path d="M9998 7113 c7 -3 16 -2 19 1 4 3 -2 6 -13 5 -11 0 -14 -3 -6 -6z"/>
<path d="M8217 6985 c-14 -106 -23 -138 -57 -204 -21 -43 -49 -87 -62 -98 -26
-21 -91 -113 -80 -113 4 0 34 15 67 33 51 27 65 41 91 91 39 74 72 215 76 325
5 128 -14 110 -35 -34z"/>
<path d="M10115 7090 c-3 -5 -1 -10 4 -10 6 0 11 5 11 10 0 6 -2 10 -4 10 -3
0 -8 -4 -11 -10z"/>
<path d="M10454 7047 c-48 -49 -134 -176 -162 -240 -19 -45 -14 -90 19 -162
l32 -67 43 6 c61 8 214 87 242 125 l22 30 -21 58 c-12 32 -26 63 -31 70 -12
15 -28 76 -32 123 -4 47 -32 110 -48 110 -7 0 -36 -24 -64 -53z"/>
<path d="M10030 7060 c-12 -8 -11 -10 7 -10 12 0 25 5 28 10 8 13 -15 13 -35
0z"/>
<path d="M9950 7050 c-12 -8 -12 -10 5 -9 11 0 29 4 40 9 18 8 18 9 -5 9 -14
0 -32 -4 -40 -9z"/>
<path d="M3949 7019 c-59 -21 -82 -38 -123 -92 -37 -48 -33 -106 4 -62 7 8 19
15 27 15 22 0 63 30 132 97 56 55 61 63 40 62 -13 0 -49 -9 -80 -20z"/>
<path d="M4095 7000 c-3 -10 -21 -28 -39 -39 -18 -11 -41 -30 -51 -41 -22 -24
-129 -85 -166 -93 -24 -6 -27 -12 -33 -68 -10 -99 -7 -204 6 -217 18 -18 35
-15 41 7 3 13 17 20 50 25 25 4 56 16 69 28 12 11 46 30 74 43 64 28 131 88
150 133 8 19 14 62 14 96 -1 59 -1 60 -16 36 -40 -63 -299 -219 -339 -204 -8
4 -15 16 -15 28 0 21 10 29 113 87 62 36 177 151 177 178 0 26 -27 28 -35 1z"/>
<path d="M7443 6988 c-24 -27 -55 -86 -73 -143 -7 -22 -24 -62 -36 -90 -13
-27 -24 -62 -24 -77 0 -35 26 -61 53 -52 16 5 19 3 13 -11 -5 -15 -2 -16 21
-10 15 3 34 11 40 17 7 6 40 23 72 38 41 20 65 38 76 59 14 28 14 31 0 31 -8
0 -15 6 -15 14 0 7 -9 35 -19 62 -11 27 -28 78 -39 114 -21 72 -37 83 -69 48z"/>
<path d="M6890 6981 c-6 -12 -7 -21 -1 -21 10 0 24 30 17 37 -2 3 -9 -5 -16
-16z"/>
<path d="M6852 6848 c-12 -24 -24 -55 -28 -71 -3 -15 -27 -46 -52 -68 -44 -39
-82 -85 -82 -101 0 -16 25 -7 82 30 51 32 63 46 93 109 38 78 43 114 21 132
-11 9 -18 3 -34 -31z"/>
<path d="M9818 6753 c-9 -32 -15 -59 -13 -61 8 -8 36 48 42 82 9 56 -10 42
-29 -21z"/>
<path d="M4215 6749 c-6 -8 -24 -40 -40 -73 -17 -32 -40 -65 -52 -73 -30 -20
-29 -31 3 -25 14 2 47 25 74 51 l48 46 -12 44 c-9 33 -14 40 -21 30z"/>
<path d="M9045 6692 c-16 -31 -42 -69 -57 -84 -15 -14 -28 -31 -28 -36 0 -9
68 -9 74 0 46 65 72 157 48 172 -4 2 -21 -21 -37 -52z"/>
<path d="M865 6709 c-28 -19 -28 -20 -5 -14 14 4 36 14 50 21 22 11 22 13 5
13 -11 0 -33 -9 -50 -20z"/>
<path d="M10706 6722 c-3 -5 15 -12 41 -16 43 -6 63 -2 52 9 -11 10 -87 16
-93 7z"/>
<path d="M10865 6719 c-3 -4 13 -9 34 -11 22 -2 38 0 35 3 -6 10 -64 17 -69 8z"/>
<path d="M795 6683 c-27 -6 -145 -84 -145 -96 0 -5 19 5 42 22 23 17 45 31 49
31 4 0 27 11 50 25 43 24 44 27 4 18z"/>
<path d="M5214 6628 c-4 -6 1 -17 11 -24 23 -17 29 -12 20 15 -7 23 -20 27
-31 9z"/>
<path d="M3431 6605 c-30 -81 -75 -136 -100 -121 -5 4 -29 -4 -53 -17 -66 -35
-68 -36 -61 -53 13 -36 159 22 221 88 46 48 52 74 23 109 l-19 24 -11 -30z"/>
<path d="M845 6564 c-76 -39 -91 -59 -112 -143 l-19 -80 28 20 c29 21 88 88
88 101 0 4 14 30 30 56 42 68 40 75 -15 46z"/>
<path d="M4853 7472 c-10 -6 -10 -12 2 -28 14 -18 14 -18 15 9 0 30 0 30 -17
19z"/>
<path d="M7189 5918 c-17 -31 -16 -236 2 -338 l14 -84 30 64 c29 62 30 71 30
203 0 134 -1 139 -24 158 -30 24 -38 24 -52 -3z"/>
<path d="M5924 5092 c-31 -18 -68 -45 -128 -95 -29 -23 -125 -154 -189 -257
-30 -48 -61 -187 -61 -270 1 -79 14 -120 40 -120 9 0 28 -8 42 -19 59 -41 176
-53 265 -26 68 20 164 73 181 100 8 12 33 44 56 70 61 70 65 86 35 146 -28 53
-99 254 -109 304 -4 17 -8 48 -10 70 -2 22 -14 57 -26 78 -25 42 -47 46 -96
19z"/>
<path d="M8870 5013 c-52 -64 -67 -165 -25 -171 32 -5 125 115 125 161 0 28
-5 36 -22 41 -39 10 -46 7 -78 -31z"/>
<path d="M9495 4961 c-3 -6 -10 -72 -15 -148 -5 -76 -16 -164 -23 -196 l-14
-57 56 5 c31 3 69 8 84 11 55 12 217 81 217 94 0 15 -147 184 -206 238 -68 61
-87 71 -99 53z"/>
<path d="M9665 4440 c-16 -6 -63 -17 -104 -26 -114 -24 -151 -42 -167 -80 -29
-69 -21 -88 60 -148 103 -78 126 -87 190 -70 38 10 59 23 81 51 17 20 44 52
61 70 31 32 64 115 64 158 0 12 -7 28 -15 35 -19 16 -131 22 -170 10z"/>
<path d="M3335 2550 c3 -5 10 -10 16 -10 5 0 9 5 9 10 0 6 -7 10 -16 10 -8 0
-12 -4 -9 -10z"/>
</g>
</svg>
